<?xml version="1.0" encoding="utf-8"?>
<!-- Generator: Adobe Illustrator 18.1.1, SVG Export Plug-In . SVG Version: 6.00 Build 0)  -->
<!DOCTYPE svg PUBLIC "-//W3C//DTD SVG 1.1//EN" "http://www.w3.org/Graphics/SVG/1.1/DTD/svg11.dtd">
<svg version="1.1" id="Layer_1" xmlns="http://www.w3.org/2000/svg" xmlns:xlink="http://www.w3.org/1999/xlink" x="0px" y="0px"
	 width="780px" height="250.6px" viewBox="0 0 780 250.6" enable-background="new 0 0 780 250.6" xml:space="preserve">
<g>
	<path fill="#7FAB67" d="M780,250.6c-10.5-67.9-69.2-119.9-140-119.9s-129.5,52-140,119.9H780z"/>
	<path fill="#7FAB67" d="M658.9,250.6c-31.5-97-95.8-163.5-170.2-163.5S350,153.6,318.6,250.6H658.9z"/>
	<rect x="571.9" y="113.7" fill="#F8F4E4" width="2.7" height="82.4"/>
	<path fill="#F1D511" d="M503,169.7c5.3,5.3,13.9,5.3,19.3,0l57.8-57.8c5.3-5.3,5.3-13.9,0-19.3c-5.3-5.3-13.9-5.3-19.3,0L503,150.4
		C497.7,155.7,497.7,164.4,503,169.7z M544.8,135.6h-7.7v-7.7l1.1-1.1h7.7v7.7L544.8,135.6z M534.4,135.6h-5l5-5V135.6z M541,124
		l5-5v5H541z M557.5,115.2v7.7l-1.1,1.1h-7.7v-7.7l1.1-1.1H557.5z M552.5,112.5l5-5v5H552.5z M560.2,115.2h5l-5,5V115.2z
		 M553.7,126.7l-5,5v-5H553.7z M542.1,138.3l-5,5v-5H542.1z M525.6,147.1v-7.7l1.1-1.1h7.7v7.7l-1.1,1.1H525.6z M530.6,149.8l-5,5
		v-5H530.6z M522.9,147.1h-5l5-5V147.1z M574.3,106.1l-6.3,6.3h-7.7v-7.7l6.3-6.3c2.1-2.1,5.6-2.1,7.7,0S576.4,104,574.3,106.1z
		 M508.8,156.2l6.3-6.3h7.7v7.7l-6.3,6.3c-2.1,2.1-5.6,2.1-7.7,0C506.7,161.8,506.7,158.3,508.8,156.2z"/>
	<g>
		<rect x="476.6" y="147.1" fill="#E45D53" width="49" height="103.5"/>
		<rect x="492.9" y="158" fill="#37433E" width="21.8" height="10.9"/>
		<rect x="492.9" y="174.3" fill="#37433E" width="21.8" height="10.9"/>
		<rect x="492.9" y="190.7" fill="#37433E" width="21.8" height="10.9"/>
		<rect x="492.9" y="207" fill="#37433E" width="21.8" height="10.9"/>
		<rect x="492.9" y="223.4" fill="#37433E" width="21.8" height="10.9"/>
	</g>
	<path fill="#309BB2" d="M318.6,0c-63.2,0-114.4,112.2-114.4,250.6H433C433,112.2,381.7,0,318.6,0z"/>
	<g>
		<rect x="383.9" y="98.1" fill="#309BB2" width="59.9" height="152.6"/>
		<rect x="443.9" y="98.1" fill="#F8F4E4" width="49" height="152.6"/>
		<rect x="394.8" y="109" fill="#37433E" width="16.3" height="141.7"/>
		<rect x="416.6" y="109" fill="#37433E" width="16.3" height="141.7"/>
		<polygon fill="#E45D53" points="394.8,98.1 438.4,76.3 438.4,98.1 		"/>
		<polygon fill="#F1D511" points="438.4,76.3 482,98.1 438.4,98.1 		"/>
		<rect x="454.8" y="109" fill="#7FAB67" width="10.9" height="141.7"/>
		<rect x="471.1" y="109" fill="#7FAB67" width="10.9" height="141.7"/>
	</g>
	<circle fill="#37433E" cx="318.6" cy="43.6" r="21.8"/>
	<rect x="296.8" y="43.6" fill="#37433E" width="43.6" height="21.8"/>
	<path fill="#7FAB67" d="M340.4,250.6c-31.5-48.5-95.8-81.7-170.2-81.7S31.5,202.1,0,250.6H340.4z"/>
	<g>
		<rect x="138.8" y="59.9" fill="#37433E" width="49" height="190.7"/>
		<rect x="187.8" y="59.9" fill="#E45D53" width="81.7" height="190.7"/>
		<rect x="198.7" y="70.8" fill="#F1D511" width="16.3" height="10.9"/>
		<rect x="220.5" y="70.8" fill="#F1D511" width="16.3" height="10.9"/>
		<rect x="242.3" y="70.8" fill="#F1D511" width="16.3" height="10.9"/>
		<rect x="198.7" y="87.2" fill="#F1D511" width="16.3" height="10.9"/>
		<rect x="220.5" y="87.2" fill="#F1D511" width="16.3" height="10.9"/>
		<rect x="242.3" y="87.2" fill="#F1D511" width="16.3" height="10.9"/>
		<rect x="198.7" y="103.5" fill="#F1D511" width="16.3" height="10.9"/>
		<rect x="220.5" y="103.5" fill="#F1D511" width="16.3" height="10.9"/>
		<rect x="242.3" y="103.5" fill="#F1D511" width="16.3" height="10.9"/>
		<rect x="198.7" y="119.9" fill="#F1D511" width="16.3" height="10.9"/>
		<rect x="220.5" y="119.9" fill="#F1D511" width="16.3" height="10.9"/>
		<rect x="242.3" y="119.9" fill="#F1D511" width="16.3" height="10.9"/>
		<rect x="198.7" y="136.2" fill="#F1D511" width="16.3" height="10.9"/>
		<rect x="220.5" y="136.2" fill="#F1D511" width="16.3" height="10.9"/>
		<rect x="242.3" y="136.2" fill="#F1D511" width="16.3" height="10.9"/>
		<rect x="198.7" y="152.6" fill="#F1D511" width="16.3" height="10.9"/>
		<rect x="220.5" y="152.6" fill="#F1D511" width="16.3" height="10.9"/>
		<rect x="242.3" y="152.6" fill="#F1D511" width="16.3" height="10.9"/>
	</g>
	<path fill="#9CD4DE" d="M340.4,139.5c0-13.9-3.4-21.6-5.9-27.3c-1.6-3.7-2.2-5.1-2.2-9.7c0-4.7,0.6-6,2.2-9.7
		c2.5-5.7,5.9-13.5,5.9-27.3c0-3-2.4-5.4-5.4-5.4h-32.7c-3,0-5.4,2.4-5.4,5.4c0,4.7-0.6,6-2.2,9.7c-2.5,5.7-5.9,13.5-5.9,27.3
		s3.4,21.6,5.9,27.3c1.6,3.7,2.2,5.1,2.2,9.7c0,4.7-0.6,6-2.2,9.7c-2.5,5.7-5.9,13.5-5.9,27.3c0,13.9,3.4,21.6,5.9,27.3
		c1.6,3.7,2.2,5.1,2.2,9.7c0,4.7-0.6,6-2.2,9.7c-2.5,5.7-5.9,13.5-5.9,27.3h43.6c0-4.7,0.6-6,2.2-9.7c2.5-5.7,5.9-13.5,5.9-27.3
		c0-13.9-3.4-21.6-5.9-27.3c-1.6-3.7-2.2-5.1-2.2-9.7c0-4.7,0.6-6,2.2-9.7C336.9,161.1,340.4,153.3,340.4,139.5z"/>
	<g>
		<polygon fill="#7FAB67" points="362.1,119.9 362.1,114.4 313.1,114.4 313.1,119.9 302.2,119.9 302.2,250.6 367.6,250.6 
			367.6,119.9 		"/>
		<rect x="313.1" y="130.8" fill="#37433E" width="10.9" height="10.9"/>
		<rect x="329.5" y="130.8" fill="#37433E" width="10.9" height="10.9"/>
		<rect x="345.8" y="130.8" fill="#37433E" width="10.9" height="10.9"/>
		<rect x="313.1" y="147.1" fill="#37433E" width="10.9" height="10.9"/>
		<rect x="329.5" y="147.1" fill="#37433E" width="10.9" height="10.9"/>
		<rect x="345.8" y="147.1" fill="#37433E" width="10.9" height="10.9"/>
		<rect x="313.1" y="163.5" fill="#37433E" width="10.9" height="10.9"/>
		<rect x="329.5" y="163.5" fill="#37433E" width="10.9" height="10.9"/>
		<rect x="345.8" y="163.5" fill="#37433E" width="10.9" height="10.9"/>
		<rect x="313.1" y="179.8" fill="#37433E" width="10.9" height="10.9"/>
		<rect x="329.5" y="179.8" fill="#37433E" width="10.9" height="10.9"/>
		<rect x="345.8" y="179.8" fill="#37433E" width="10.9" height="10.9"/>
		<rect x="313.1" y="196.1" fill="#37433E" width="10.9" height="10.9"/>
		<rect x="329.5" y="196.1" fill="#37433E" width="10.9" height="10.9"/>
		<rect x="345.8" y="196.1" fill="#37433E" width="10.9" height="10.9"/>
		<rect x="313.1" y="212.5" fill="#37433E" width="10.9" height="10.9"/>
		<rect x="329.5" y="212.5" fill="#37433E" width="10.9" height="10.9"/>
		<rect x="345.8" y="212.5" fill="#37433E" width="10.9" height="10.9"/>
		<rect x="313.1" y="228.8" fill="#37433E" width="10.9" height="10.9"/>
		<rect x="329.5" y="228.8" fill="#37433E" width="10.9" height="10.9"/>
		<rect x="345.8" y="228.8" fill="#37433E" width="10.9" height="10.9"/>
		<rect x="362.1" y="114.4" fill="#F1D511" width="27.2" height="5.4"/>
		<rect x="367.6" y="119.9" fill="#F1D511" width="32.7" height="130.8"/>
	</g>
	<g>
		<g>
			<polygon fill="#E45D53" points="340.2,250.6 285.7,250.6 269.5,174.3 324,174.3 			"/>
			<polygon fill="#37433E" points="292.2,242.5 279.5,182.5 317.5,182.5 330.2,242.5 			"/>
			<polygon fill="#309BB2" points="348.5,245.2 340.2,250.6 324,174.3 332.2,168.9 			"/>
		</g>
		<polygon fill="#F1D511" points="269.5,174.3 277.8,168.9 332.2,168.9 324,174.3 		"/>
	</g>
	<rect x="220.5" y="174.3" fill="#F1D511" width="65.4" height="76.3"/>
	<rect x="231.4" y="185.2" fill="#F8F4E4" width="43.6" height="54.5"/>
	<polygon fill="#E45D53" points="231.4,185.2 253.2,212.5 275,185.2 	"/>
	<polygon fill="#E45D53" points="275,239.7 253.2,212.5 231.4,239.7 	"/>
	<rect x="176.9" y="174.3" fill="#309BB2" width="43.6" height="76.3"/>
	<rect x="187.8" y="185.2" fill="#37433E" width="21.8" height="54.5"/>
	<rect x="204.1" y="136.2" fill="#37433E" width="38.1" height="38.1"/>
	<rect x="242.3" y="136.2" fill="#7FAB67" width="38.1" height="38.1"/>
	<polygon fill="#F1D511" points="242.3,136.2 261.4,155.3 280.4,136.2 	"/>
	<polygon fill="#309BB2" points="242.3,174.3 261.4,155.3 280.4,174.3 	"/>
	<path fill="#7FAB67" d="M457.4,250.6c-13.8-19.8-36.7-32.7-62.6-32.7s-48.8,12.9-62.6,32.7H457.4z"/>
	<rect x="585.5" y="158" fill="#37433E" width="38.1" height="92.6"/>
	<rect x="514.7" y="185.2" fill="#309BB2" width="59.9" height="65.4"/>
	<rect x="574.6" y="185.2" fill="#F1D511" width="38.1" height="65.4"/>
	<rect x="585.5" y="196.1" fill="#E45D53" width="16.3" height="43.6"/>
	<rect x="525.6" y="196.1" fill="#37433E" width="38.1" height="43.6"/>
	<rect x="111.5" y="125.3" fill="#F1D511" width="49" height="125.3"/>
	<rect x="78.8" y="125.3" fill="#309BB2" width="32.7" height="125.3"/>
	<rect x="623.7" y="158" fill="#E45D53" width="76.3" height="92.6"/>
	<rect x="634.6" y="168.9" fill="#F1D511" width="54.5" height="70.8"/>
	<polygon fill="#F8F4E4" points="634.6,168.9 661.8,204.3 689,168.9 	"/>
	<rect x="601.9" y="125.3" fill="#309BB2" width="27.2" height="32.7"/>
	<rect x="629.1" y="125.3" fill="#F1D511" width="32.7" height="32.7"/>
	<polygon fill="#7FAB67" points="661.8,125.3 645.5,141.7 629.1,125.3 	"/>
	<polygon fill="#37433E" points="661.8,158 645.5,141.7 629.1,158 	"/>
	<rect x="122.4" y="136.2" fill="#E45D53" width="27.2" height="114.4"/>
	<rect x="89.7" y="136.2" fill="#37433E" width="10.9" height="114.4"/>
</g>
</svg>
