<svg xmlns="http://www.w3.org/2000/svg" width="112" height="112" viewBox="0 0 112 112"><circle fill="#9CD4DE" cx="56" cy="56" r="56"/><path fill="#36423D" d="M76 64H60c-6.6 0-12 5.4-12 12s5.4 12 12 12h11l5 3.3V94h4v-6.7c4.7-1.6 8-6.1 8-11.3 0-6.6-5.4-12-12-12z"/><path fill="#E55C53" d="M84 76c0-6.6-5.4-12-12-12H56c-6.6 0-12 5.4-12 12s5.4 12 12 12h11l9 6v-6.7c4.7-1.6 8-6.1 8-11.3z"/><path fill="#36423D" d="M74 64H56c-6.6 0-12 5.4-12 12 0 3.7 1.7 7 4.3 9.2L62 76h24c0-6.6-5.4-12-12-12z"/><path fill="#309AB1" d="M76 24H44c-13.3 0-24 10.7-24 24 0 10 6.2 18.6 14.9 22.2L28 84h8l18-12h22c13.3 0 24-10.7 24-24S89.3 24 76 24z"/><path fill="#F8F4E3" d="M68 24H36c-13.3 0-24 10.7-24 24 0 10.4 6.7 19.3 16 22.6V84l18-12h22c13.3 0 24-10.7 24-24S81.3 24 68 24z"/><circle fill="#F2D50A" cx="36" cy="48" r="16"/><path fill="#E55C53" d="M36 52c-5.1 0-9.5 2.3-12.5 6 2.9 3.7 7.4 6 12.5 6s9.5-2.3 12.5-6c-3-3.7-7.4-6-12.5-6z"/><circle fill="#E55C53" cx="36" cy="44" r="8"/><path fill="#E9E5D1" d="M56 38h24v4H56zM56 46h24v4H56zM56 54h16v4H56z"/></svg>