<svg xmlns="http://www.w3.org/2000/svg" width="1853.4" height="382" viewBox="0 0 1853.4 382"><path fill="#309BB2" d="M99 254.7c-54.7 0-99 57-99 127.3h198.1c0-70.3-44.4-127.3-99.1-127.3z"/><g fill="#E45D53"><circle cx="297.1" cy="70.7" r="14.1"/><circle cx="297.1" cy="240.5" r="14.1"/><circle cx="212.2" cy="155.6" r="14.1"/><circle cx="382" cy="155.6" r="14.1"/><circle cx="237.1" cy="95.6" r="14.1"/><circle cx="357.1" cy="215.7" r="14.1"/><circle cx="237.1" cy="215.7" r="14.1"/><circle cx="357.1" cy="95.6" r="14.1"/><circle cx="275.1" cy="73.6" r="14.1"/><circle cx="319.1" cy="237.6" r="14.1"/><circle cx="215.1" cy="177.6" r="14.1"/><circle cx="379.1" cy="133.7" r="14.1"/><circle cx="223.6" cy="113.2" r="14.1"/><circle cx="370.6" cy="198.1" r="14.1"/><circle cx="254.7" cy="229.1" r="14.1"/><circle cx="339.6" cy="82.1" r="14.1"/><circle cx="254.7" cy="82.1" r="14.1"/><circle cx="339.6" cy="229.1" r="14.1"/><circle cx="223.6" cy="198.1" r="14.1"/><circle cx="370.6" cy="113.2" r="14.1"/><circle cx="215.1" cy="133.7" r="14.1"/><circle cx="379.1" cy="177.6" r="14.1"/><circle cx="275.1" cy="237.6" r="14.1"/><circle cx="319.1" cy="73.6" r="14.1"/></g><circle fill="#F1D511" cx="297.1" cy="155.6" r="84.9"/><path fill="#F1D511" d="M1146 382c-12.6-65.1-56.9-113.2-109.6-113.2-52.7 0-97.1 48.1-109.6 113.2H1146z"/><path fill="#7FAB67" d="M1004.5 382c0-117.2-57-212.2-127.3-212.2s-127.3 95-127.3 212.2"/><path fill="#37433E" d="M877.2 198.1c-15.6 0-28.3 12.7-28.3 28.3v28.3h56.6v-28.3c0-15.7-12.7-28.3-28.3-28.3z"/><path fill="#9CD4DE" d="M891.3 247.6c-7.1 0-7.1-7.1-14.1-7.1-7.1 0-7.1 7.1-14.2 7.1s-7.1-7.1-14.2-7.1v24.8h7.1v102.6h7.1V265.3h7.1v102.6h7.1V265.3h7.1v102.6h7.1V265.3h7.1v102.6h7.1V240.6c-7.2-.1-7.2 7-14.3 7z"/><path fill="#309BB2" d="M898.4 244.1v123.8h-7.1V247.6c3.6 0 5.3-1.8 7.1-3.5zM884.3 244.1v123.8h-7.1V240.5c3.5 0 5.3 1.8 7.1 3.6zM870.1 367.9H863V247.6c3.5 0 5.3-1.8 7.1-3.5v123.8zM856 367.9h-7.1V240.5c3.5 0 5.3 1.8 7.1 3.5v123.9z"/><path fill="#7FAB67" d="M396.1 382c0-117.2-63.3-212.2-141.5-212.2s-141.5 95-141.5 212.2"/><path fill="#9CD4DE" d="M594.2 346.6c26.5 0 26.5 14.1 53.1 14.1 26.5 0 26.5-14.1 53.1-14.1 26.5 0 26.5 14.1 53.1 14.1 26.5 0 26.5-14.1 53.1-14.1 26.5 0 26.5 14.1 53.1 14.1 26.5 0 26.5-14.1 53.1-14.1 26.5 0 26.5 14.1 53 14.1s26.5-14.1 53-14.1V382H594.2v-35.4z"/><path fill="none" stroke="#F8F4E4" stroke-width="6" stroke-miterlimit="10" d="M718 180.4v166.2"/><path fill="#E45D53" d="M718 180.4c17.9 5.1 34.8 14.7 48.9 28.8 5.5 5.5 5.5 14.5 0 20.1-5.5 5.5-14.5 5.5-20.1 0-14-14.1-23.7-31-28.8-48.9zM669.1 131.5c5.5-5.5 14.5-5.5 20.1 0 14.1 14.1 23.7 31 28.8 48.9-17.9-5.1-34.8-14.7-48.9-28.8-5.5-5.6-5.5-14.6 0-20.1z"/><path fill="#F8F4E4" d="M718 180.4c5.1-17.9 14.7-34.8 28.8-48.9 5.5-5.5 14.5-5.5 20.1 0 5.5 5.5 5.5 14.5 0 20.1-14.1 14.1-31 23.7-48.9 28.8zM669.1 229.3c-5.5-5.5-5.5-14.5 0-20.1 14.1-14.1 31-23.7 48.9-28.8-5.1 17.9-14.7 34.8-28.8 48.9-5.6 5.5-14.5 5.5-20.1 0z"/><circle fill="#F8F4E4" cx="718" cy="180.4" r="14.2"/><circle fill="#E45D53" cx="718" cy="180.4" r="3.5"/><path fill="#F1D511" d="M466.9 254.7h70.7v113.2h-70.7z"/><circle fill="#7FAB67" cx="495.2" cy="183.9" r="70.7"/><path fill="#F1D511" d="M353.7 70.7h141.5V382H353.7z"/><path fill="#F8F4E4" d="M1061.1 382c0-39.1-25.3-70.7-56.6-70.7S947.9 343 947.9 382"/><path fill="#309BB2" d="M297.1 28.3V382H382l-28.3-70.7V70.7z"/><path fill="#F8F4E4" d="M222.974 359.534l-20.01-20.01 80.043-80.045 20.01 20.01z"/><circle fill="#F1D511" cx="283" cy="259.5" r="28.3"/><circle fill="#F1D511" cx="202.9" cy="339.6" r="28.3"/><circle fill="#E45D53" cx="202.9" cy="339.6" r="14.1"/><circle fill="#E45D53" cx="283" cy="259.5" r="14.1"/><g fill="#37433E"><path d="M182.9 359.6c11.1 11.1 29 11.1 40 0l10 10c-16.6 16.6-43.4 16.6-60 0s-16.6-43.4 0-60l10 10c-11 11-11 28.9 0 40zM303 239.5c-11.1-11.1-29-11.1-40 0l-10-10c16.6-16.6 43.4-16.6 60 0s16.6 43.4 0 60l-10-10c11-11 11-28.9 0-40zM232.96 369.53l-9.97-9.97 80.044-80.045 9.97 9.97zM182.868 319.548l-9.97-9.97 80.044-80.044 9.97 9.97z"/></g><path fill="#F8F4E4" d="M293 209.5l20 20c-16.6-16.6-43.4-16.6-60 0l-80 80c-16.6 16.6-16.6 43.4 0 60l-20-20c-16.6-16.6-16.6-43.4 0-60l80-80c16.5-16.6 43.4-16.6 60 0z"/><path fill="#7FAB67" d="M509.3 183.9h141.5v70.7H509.3z"/><path fill="#309BB2" d="M509.3 205.1l28.3 35.4v-56.6h-28.3z"/><path fill="#F1D511" d="M778.1 382c-12.6-48.8-56.9-84.9-109.6-84.9-52.7 0-97.1 36.1-109.6 84.9h219.2z"/><path fill="#309BB2" d="M367.9 169.8h84.8l56.6 70.7H396.1l-28.2-35.4z"/><path fill="#37433E" d="M367.9 382c-39.1 0-70.7-31.7-70.7-70.7 0-39.1 31.7-70.7 70.7-70.7h70.7V382h-70.7zM551.8 382c-39.1 0-70.7-31.7-70.7-70.7 0-39.1 31.7-70.7 70.7-70.7h70.7V382h-70.7z"/><path fill="#309BB2" d="M622.5 240.5v-56.6h-42.4v56.6H438.6c-39.1 0-70.7 31.7-70.7 70.7s31.7 70.7 70.7 70.7h183.9c39.1 0 70.7-31.7 70.7-70.7s-31.6-70.7-70.7-70.7zm0 127.4H438.6c-31.3 0-56.6-25.3-56.6-56.6s25.3-56.6 56.6-56.6h183.9c31.3 0 56.6 25.3 56.6 56.6s-25.3 56.6-56.6 56.6z"/><circle fill="#F8F4E4" cx="622.5" cy="311.3" r="56.6"/><circle fill="#7FAB67" cx="622.5" cy="311.3" r="28.3"/><circle fill="#37433E" cx="622.5" cy="311.3" r="7.1"/><circle fill="#F8F4E4" cx="438.6" cy="311.3" r="56.6"/><circle fill="#7FAB67" cx="438.6" cy="311.3" r="28.3"/><circle fill="#37433E" cx="438.6" cy="311.3" r="7.1"/><path fill="#E45D53" d="M424.4 240.5h113.2L481 169.8H367.9z"/><path fill="#37433E" d="M424.4 84.9c31.3 0 56.6 25.3 56.6 56.6v28.3H367.9v-28.3c0-31.3 25.3-56.6 56.5-56.6z"/><path fill="#F8F4E4" d="M353.7 70.7l-56.6-42.4h141.5l56.6 42.4z"/><path fill="#E45D53" d="M389.1 0c11.7 0 21.2 9.5 21.2 21.2v21.2h-42.4V21.2c0-11.7 9.5-21.2 21.2-21.2z"/><path fill="#F8F4E4" d="M622.5 155.6c-9.1 0-17.2 4.3-22.4 11-5.1 5.2-12.2 8.4-20.1 8.4s-15-3.3-20.1-8.4c-5.2-6.7-13.3-11-22.4-11-15.6 0-28.3 12.7-28.3 28.3s12.7 28.3 28.3 28.3c9.1 0 17.2-4.3 22.4-11 5.1-5.2 12.2-8.5 20.1-8.5 7.9 0 15 3.3 20.1 8.5 5.2 6.7 13.3 11 22.4 11 15.6 0 28.3-12.7 28.3-28.3s-12.7-28.3-28.3-28.3z"/><circle fill="#E45D53" cx="537.6" cy="183.9" r="10.6"/><circle fill="#E45D53" cx="622.5" cy="183.9" r="10.6"/><path fill="#F1D511" d="M283 297.1h84.9V382H283z"/><path fill="#309BB2" d="M254.7 297.1H283V382h-28.3z"/><path fill="#F8F4E4" d="M367.9 297.1l-42.5 42.5-42.4-42.5z"/><path fill="#E45D53" d="M325.4 339.6l42.5 42.4H283z"/><path fill="#309BB2" d="M1711.9 155.6c-78.1 0-141.5 101.3-141.5 226.4h283c0-125-63.3-226.4-141.5-226.4z"/><path fill="#F8F4E4" d="M1550.444 223.985l20.01-20.01 80.044 80.043-20.01 20.01z"/><circle fill="#F1D511" cx="1570.4" cy="203.9" r="28.3"/><circle fill="#F1D511" cx="1650.5" cy="284" r="28.3"/><circle fill="#E45D53" cx="1650.5" cy="284" r="14.1"/><circle fill="#E45D53" cx="1570.4" cy="203.9" r="14.1"/><g fill="#37433E"><path d="M1670.5 304c-11.1 11.1-29 11.1-40 0l-10 10c16.6 16.6 43.4 16.6 60 0s16.6-43.4 0-60l-10 10c11 11 11 28.9 0 40zM1550.4 183.9c11.1-11.1 29-11.1 40 0l10-10c-16.6-16.6-43.4-16.6-60 0s-16.6 43.4 0 60l10-10c-11-11-11-28.9 0-40zM1540.458 233.962l9.97-9.97 80.043 80.043-9.97 9.97zM1590.408 183.9l9.97-9.97 80.044 80.044-9.97 9.97z"/></g><path fill="#F8F4E4" d="M1560.4 153.9l-20 20c16.6-16.6 43.4-16.6 60 0l80 80c16.6 16.6 16.6 43.4 0 60l20-20c16.6-16.6 16.6-43.4 0-60l-80-80c-16.5-16.6-43.4-16.6-60 0z"/><path fill="#F1D511" d="M1457.3 84.9h70.7V382h-70.7z"/><path fill="#309BB2" d="M1315.8 84.9h141.5V382h-141.5z"/><path fill="#7FAB67" d="M1223.8 382c-12.6-48.8-56.9-84.9-109.6-84.9-52.7 0-97.1 36.1-109.6 84.9h219.2z"/><path fill="#37433E" d="M1287.5 283h84.9v99h-84.9z"/><path fill="#F1D511" d="M1429 382V212.2l-56.6 56.6V382z"/><path fill="#E45D53" d="M1372.4 283c-23.4 0-42.4 19-42.4 42.4s19 42.4 42.4 42.4h42.4V283h-42.4z"/><path fill="#37433E" d="M1188.4 382c-31.3 0-56.6-25.3-56.6-56.6s25.3-56.6 56.6-56.6h42.4V382h-42.4z"/><circle fill="#F1D511" cx="1230.9" cy="325.4" r="42.4"/><circle fill="#E45D53" cx="1230.9" cy="325.4" r="14.1"/><circle fill="#F1D511" cx="1414.8" cy="325.4" r="42.4"/><circle fill="#E45D53" cx="1414.8" cy="325.4" r="14.1"/><path fill="#309BB2" d="M1230.9 367.9c-23.4 0-42.4-19-42.4-42.4s19-42.4 42.4-42.4V269c-31.3 0-56.6 25.3-56.6 56.6s25.3 56.6 56.6 56.6v-14.3zM1414.8 283c23.4 0 42.4 19 42.4 42.4s-19 42.4-42.4 42.4V382c31.3 0 56.6-25.3 56.6-56.6s-25.3-56.6-56.6-56.6V283zM1230.9 268.8h183.9v14.1h-183.9zM1230.9 367.9h183.9V382h-183.9z"/><path fill="#E45D53" d="M1429 212.2h-84.9l-56.6 56.6h84.9z"/><circle fill="#37433E" cx="1386.5" cy="155.6" r="42.4"/><path fill="#37433E" d="M1344.1 155.6h84.9v56.6h-84.9z"/><path fill="#7FAB67" d="M1637.6 382c-12.6-48.8-56.9-84.9-109.6-84.9-52.7 0-97.1 36.1-109.6 84.9h219.2zM1457.3 84.9L1429 14.1l-113.2 70.8z"/><path fill="#F8F4E4" d="M1429 14.1l99 70.8h-70.7z"/><path fill="#7FAB67" d="M1216.7 212.2h56.6v56.6h-56.6z"/><path fill="#F1D511" d="M1273.3 212.2h28.3v56.6h-28.3z"/><path fill="#F8F4E4" d="M1216.7 212.2l28.3 28.3 28.3-28.3z"/><path fill="#37433E" d="M1245 240.5l-28.3 28.3h56.6z"/><path fill="#309BB2" d="M1542.1 268.8h99V382h-99z"/><path fill="#37433E" d="M1556.3 283h70.7v84.9h-70.7z"/><path fill="#F1D511" d="M1641.2 268.8h56.6V382h-56.6z"/><path fill="#E45D53" d="M1655.3 283h28.3v84.9h-28.3z"/></svg>