<svg xmlns="http://www.w3.org/2000/svg" width="400" height="147.4" viewBox="0 0 400 147.4"><path fill="#37433E" d="M400 115.8c0 17.4-14.2 31.6-31.6 31.6h-168.4c-17.4 0-31.6-14.2-31.6-31.6v-84.2c0-17.4 14.2-31.6 31.6-31.6h168.4c17.4 0 31.6 14.2 31.6 31.6v84.2z"/><path fill="#E45D53" d="M378.9 115.8c0 17.4-14.2 31.6-31.6 31.6h-168.4c-17.4 0-31.6-14.2-31.6-31.6v-84.2c0-17.4 14.2-31.6 31.6-31.6h168.4c17.4 0 31.6 14.2 31.6 31.6v84.2z"/><path fill="#F8F4E4" d="M178.9 131.6c-8.7 0-15.8-7.1-15.8-15.8v-84.2c0-8.7 7.1-15.8 15.8-15.8h105.3c8.7 0 15.8 7.1 15.8 15.8v84.2c0 8.7-7.1 15.8-15.8 15.8h-105.3z"/><circle fill="#37433E" cx="231.6" cy="73.7" r="63.2"/><circle fill="#F1D511" cx="231.6" cy="73.7" r="21.1"/><circle fill="#37433E" cx="231.6" cy="73.7" r="5.3"/><circle fill="#37433E" cx="336.8" cy="110.5" r="21.1"/><path stroke="#F1D511" stroke-width="5" stroke-linecap="round" stroke-linejoin="round" stroke-miterlimit="10" fill="none" d="M336.8 110.5l-21-26.3-42.1-10.5"/><path stroke="#F8F4E4" stroke-width="8" stroke-miterlimit="10" fill="none" d="M285 76.5l-16.6-4.1"/><circle fill="#309BB2" cx="336.8" cy="110.5" r="10.5"/><path fill="#37433E" d="M321.1 15.8c-2.9 0-5.3 2.4-5.3 5.3v42.1c0 2.9 2.4 5.3 5.3 5.3s5.3-2.4 5.3-5.3v-42.1c-.1-3-2.4-5.3-5.3-5.3zM336.8 15.8c-2.9 0-5.3 2.4-5.3 5.3v42.1c0 2.9 2.4 5.3 5.3 5.3s5.3-2.4 5.3-5.3v-42.1c0-3-2.4-5.3-5.3-5.3zM352.6 15.8c-2.9 0-5.3 2.4-5.3 5.3v42.1c0 2.9 2.4 5.3 5.3 5.3s5.3-2.4 5.3-5.3v-42.1c0-3-2.4-5.3-5.3-5.3zM178.9 63.2c0-20.1-11.3-37.6-27.8-46.4-2.4 4.4-3.7 9.5-3.7 14.9v79.8c18.6-8.2 31.5-26.8 31.5-48.3z"/><circle fill="#7FAB67" cx="52.6" cy="52.6" r="52.6"/><circle fill="#7FAB67" cx="115.8" cy="52.6" r="52.6"/><path fill="#7FAB67" d="M52.6 0h63.2v105.3h-63.2z"/><path fill="#37433E" d="M157.9 126.3l-10.5-31.6v21.1z"/><path fill="#7FAB67" d="M126.3 84.2l31.6 42.1-84.2-21z"/><path stroke="#F8F4E4" stroke-width="8" stroke-miterlimit="10" fill="none" d="M42.1 31.6h84.2M42.1 52.6h84.2M42.1 73.7h42.1"/></svg>