<svg class="errorHero-img" width="630" height="168" viewBox="0 0 630 168" preserveAspectRatio="xMidYMax" xmlns="http://www.w3.org/2000/svg">

  <g class="errorHero-img-sun">
    <path d="M449 168c0-10.404 8.707-21.645 6.494-31.38-2.284-10.05-15.06-16.398-19.436-25.467-4.448-9.218-1.494-23.15-7.816-31.07-6.354-7.956-20.608-8.156-28.565-14.51-7.918-6.322-11.266-20.19-20.484-24.637-9.07-4.375-21.978 1.606-32.03-.68C337.428 38.045 328.403 27 318 27c-10.405 0-19.428 11.044-29.163 13.257-10.05 2.285-22.96-3.696-32.03.68-9.218 4.446-12.565 18.313-20.483 24.636-7.957 6.353-22.212 6.554-28.565 14.51-6.324 7.918-3.37 21.85-7.817 31.07-4.375 9.068-17.153 15.416-19.438 25.468C178.293 146.356 187 157.597 187 168h262" fill="#E55C53"/>
    <path d="M206 168c0-61.856 50.144-112 112-112s112 50.144 112 112" fill="#F2D50A"/>
  </g>

  <circle cx="446" cy="152" r="16" fill="#F8F4E3"/>

  <g class="errorHero-img-boat">
    <path d="M286 136h24v24h-24v-24z" fill="#309AB1"/>
    <path d="M382 160h-72v-24h88l-16 24" fill="#36423D"/>
    <path d="M318 48v80h-40l40-80" fill="#F9F4E3"/>
    <path d="M326 32l48 96h-48V32" fill="#F9F4E3"/>
  </g>

  <g class="errorHero-img-hill">
    <path d="M166 72c-39.765 0-72 42.98-72 96h144c0-53.02-32.236-96-72-96" fill="#309AB1"/>
    <path d="M178 73.335c-3.903-.873-7.91-1.335-12-1.335-39.765 0-72 42.98-72 96h24c0-47.567 25.948-87.047 60-94.665" fill="#2A92A9"/>
    <path d="M206 139c-8.837 0-16 7.164-16 16h32c0-8.836-7.163-16-16-16" fill="#F9F4E3"/>
    <circle cx="206" cy="155" r="16" fill="#F8F4E3"/>
  </g>

  <g class="errorHero-img-ocean">
    <path d="M532.005 156c-14.998 0-14.998-8-29.996-8-15 0-15 8-30 8s-15-8-30-8H442c-14.997 0-14.998 8-29.993 8-13.592 0-14.867-6.57-26.15-7.802-1.167-.128-2.442-.198-3.848-.198-15.002 0-15.004 8-30.003 8-14.997 0-14.998-8-29.997-8H322c-14.99.004-14.994 8-29.99 8-15 0-15-8-30-8-15.003 0-15.003 8-30.006 8-15.002 0-15.002-8-30.004-8v20h360v-20c-14.998 0-14.998 8-29.995 8" fill="#9CD4DE"/>
  </g>

  <g class="errorHero-img-hill">
    <path d="M222 168c-22.135-38.248-63.463-64-110.833-64S22.467 129.752.334 168H222" fill="#7EAB67"/>
    <path d="M126 104.87c-4.868-.564-9.814-.87-14.833-.87-47.37 0-88.7 25.752-110.833 64H30c19.79-34.196 54.926-58.386 96-63.13" fill="#76A060"/>
    <path d="M191.167 152c-8.837 0-16 7.163-16 16h32c0-8.837-7.164-16-16-16" fill="#F9F4E3"/>
    <path d="M134 120c0 4.418 3.582 8 8 8 0-4.418-3.582-8-8-8" fill="#94C27D"/>
    <path d="M78 144c0 4.418-3.582 8-8 8 0-4.418 3.582-8 8-8" fill="#94C27D"/>
  </g>

  <g class="errorHero-img-hill">
    <path d="M571.27 168c-13.833-23.905-39.664-40-69.27-40-29.606 0-55.437 16.095-69.27 40h138.54" fill="#7EAB67"/>
    <path d="M502 128c-3.607 0-7.156.243-10.635.706C516.45 132.04 537.85 147.006 550 168h21.27c-13.833-23.905-39.664-40-69.27-40" fill="#76A060"/>
  </g>

  <g class="errorHero-img-cloud">
    <path d="M526 68.22c14.944 1.65 27.133 12.453 30.84 26.678C559.727 90.73 564.544 88 570 88c2.81 0 5.452.725 7.747 1.997C582.59 81.63 591.637 76 602 76c15.464 0 28 12.536 28 28H454c0-10.517 6.765-19.454 16.18-22.697C471.497 71.533 479.87 64 490 64c1.507 0 2.976.167 4.388.483C495.99 57.34 502.37 52 510 52c8.837 0 16 7.164 16 16v.22z" fill="#F9F4E3"/>
  </g>

  <g class="errorHero-img-cloud">
    <path d="M114.02 23.034C108.537 18.634 101.575 16 94 16c-13.366 0-24.82 8.195-29.607 19.835C61.597 33.445 57.967 32 54 32c-8.837 0-16 7.163-16 16h152c0-15.464-12.536-28-28-28-.11 0-.22 0-.332.002C159.766 8.65 149.893 0 138 0c-12.93 0-23.474 10.227-23.98 23.034z" fill="#F9F4E3"/>
    <path d="M206 32c-8.837 0-16 7.163-16 16h32c0-8.837-7.163-16-16-16" fill="#F9F4E3"/>
  </g>

</svg>
