<svg xmlns="http://www.w3.org/2000/svg" width="72" height="72" viewBox="0 0 72 72"><circle fill="#9CD4DE" cx="36" cy="36" r="36"/><path fill="#37433E" d="M64 58.6v-34.6c0-4.4-3.6-8-8-8h-40c-4.4 0-8 3.6-8 8v34.6c6.6 8.2 16.7 13.4 28 13.4s21.4-5.2 28-13.4z"/><path fill="#2896AD" d="M56 16h-40c-4.4 0-8 3.6-8 8v8h56v-8c0-4.4-3.6-8-8-8z"/><circle fill="#9CD4DE" cx="18" cy="24" r="2"/><circle fill="#9CD4DE" cx="24" cy="24" r="2"/><circle fill="#9CD4DE" cx="30" cy="24" r="2"/><path fill="#7FAB67" d="M16 38h24v4h-24z"/><path fill="#F1D511" d="M24 46h8v4h-8z"/><path fill="#E45D53" d="M32 46h24v4h-24z"/><path fill="#7FAB67" d="M24 54h24v4h-24z"/></svg>