<svg width="221" height="212" viewBox="0 0 221 212" xmlns="http://www.w3.org/2000/svg"><g fill="none" fill-rule="evenodd"><g><g><path d="M91.533 3.822c10.176 6.29 26.83 6.29 37.005 0 10.177-6.292 22.213-2.38 26.748 8.69 4.534 11.072 18.006 20.86 29.937 21.75 11.93.893 19.37 11.13 16.53 22.754-2.838 11.623 2.308 27.46 11.436 35.194 9.128 7.734 9.128 20.39 0 28.124-9.13 7.734-14.275 23.57-11.436 35.194 2.84 11.622-4.6 21.86-16.53 22.752-11.932.892-25.404 10.68-29.938 21.75-4.535 11.073-16.57 14.984-26.748 8.692-10.176-6.292-26.83-6.292-37.005 0-10.176 6.292-22.213 2.38-26.747-8.69-4.535-11.072-18.007-20.86-29.938-21.752-11.93-.89-19.37-11.13-16.53-22.752 2.838-11.623-2.307-27.46-11.436-35.194-9.128-7.735-9.128-20.39 0-28.124 9.13-7.734 14.274-23.57 11.435-35.194-2.84-11.623 4.6-21.86 16.53-22.753 11.932-.89 25.404-10.68 29.94-21.75C69.32 1.44 81.356-2.47 91.532 3.822" fill="#F1EDDE"/><path d="M42.036 26.272h120v160h-120v-160z" fill="#E55C53"/><path d="M58.036 42.272h88v128h-88v-128z" fill="#9CD4DE"/><path d="M58.036 42.272h8v128h-8v-128z" fill="#36423D"/><path d="M66.036 42.272h80l-80 80v-80" fill="#F9F4E3"/><path d="M162.036 26.272h16v160h-16v-160z" fill="#36423D"/><path d="M140.036 122.272c0-3.27-1.475-6.31-4-8.843V102.27l-10.57 5.284c-2.894-.826-6.082-1.284-9.43-1.284-3.35 0-6.536.458-9.432 1.284l-10.568-5.284v11.157c-2.526 2.532-4 5.572-4 8.842 0 7.17 3.148 13.602 8.134 18-4.986 7.33-8.134 18.05-8.134 30h48c0-11.95-3.15-22.67-8.134-30 4.985-4.398 8.134-10.83 8.134-18" fill="#309AB1"/><path d="M122.036 122.272c0 8.836-10.745 16-24 16s-24-7.164-24-16c0-8.837 10.745-16 24-16s24 7.163 24 16" fill="#36423D"/><path d="M122.036 122.272c0 13.254-10.745 24-24 24s-24-10.746-24-24" fill="#36423D"/><path d="M94.036 110.272l-16-8v16l16-8" fill="#36423D"/><path d="M102.036 110.272l16-8v16l-16-8" fill="#36423D"/><path d="M74.036 170.272c0-22.092 10.745-40 24-40s24 17.908 24 40" fill="#36423D"/><path d="M122.036 170.272c0 13.254-10.745 16-24 16s-24-2.746-24-16c0-13.255 10.745-24 24-24s24 10.745 24 24" fill="#36423D"/><path d="M42.036 182.272h56" stroke="#36423D" stroke-width="8" stroke-linecap="round"/></g></g></g></svg>