<svg xmlns="http://www.w3.org/2000/svg" width="634" height="283.9" viewBox="0 0 634 283.9"><g fill="#F8F4E4"><path d="M123 94.6c-36.6 0-66.2 29.7-66.2 66.2h132.5c0-36.5-29.7-66.2-66.3-66.2zM217.6 123c-20.9 0-37.9 16.9-37.9 37.9h75.7c.1-20.9-16.9-37.9-37.8-37.9zM52 127.7c-18.3 0-33.1 14.8-33.1 33.1h66.2c.1-18.2-14.8-33.1-33.1-33.1z"/><circle cx="189.3" cy="132.5" r="28.4"/></g><g fill="#F8F4E4"><path d="M369 52c-20.9 0-37.9 16.9-37.9 37.9h75.7c.1-20.9-16.9-37.9-37.8-37.9zM477.9 37.9c-28.7 0-52 23.3-52 52h104.1c-.1-28.7-23.4-52-52.1-52zM416.4 71c-10.5 0-18.9 8.5-18.9 18.9h37.9c-.1-10.5-8.6-18.9-19-18.9zM529.9 71c-10.5 0-18.9 8.5-18.9 18.9h37.9c-.1-10.5-8.5-18.9-19-18.9z"/></g><path fill="#309BB2" d="M520.4 189.3h47.3v66.2h-47.3z"/><path fill="#F1D511" d="M567.8 189.3h47.3v66.2h-47.3z"/><path fill="#E45D53" d="M577.2 198.7h28.4v47.3h-28.4z"/><path fill="#37433E" d="M529.9 198.7h28.4v47.3h-28.4zM577.2 198.7h28.4v9.5h-28.4zM501.5 255.5h56.8v28.4h-56.8z"/><path fill="#7FAB67" d="M558.3 255.5h75.7v28.4h-75.7z"/><path fill="#37433E" d="M94.6 132.5h94.6v151.4h-94.6z"/><path fill="#7FAB67" d="M113.6 132.5h28.4v151.4h-28.4zM170.3 132.5h18.9v151.4h-18.9z"/><path fill="#F1D511" d="M170.3 113.6c-6.1 0-11.5 2.9-15 7.4-3.4 3.5-8.2 5.7-13.4 5.7-5.3 0-10-2.2-13.4-5.7-3.5-4.5-8.9-7.4-15-7.4-10.5 0-18.9 8.5-18.9 18.9s8.5 18.9 18.9 18.9c6.1 0 11.5-2.9 15-7.4 3.4-3.5 8.2-5.7 13.4-5.7 5.3 0 10 2.2 13.4 5.7 3.5 4.5 8.9 7.4 15 7.4 10.5 0 18.9-8.5 18.9-18.9s-8.4-18.9-18.9-18.9z"/><circle fill="#309BB2" cx="113.6" cy="132.5" r="7.1"/><circle fill="#309BB2" cx="170.3" cy="132.5" r="7.1"/><path fill="#309BB2" d="M104.1 160.9h104.1v47.3h-104.1z"/><path fill="#37433E" d="M274.1 52.8l-18.6-5.5h-47.3v123h-66.3v28.4h66.3v85.2h47.3v-75.7h18.9z"/><path fill="#F1D511" d="M159.4 265.8l8.7 8.7h-6.3v9.5h37.7c7-.2 14-2.9 19.4-8.3 11.1-11.1 11.1-29.1 0-40.1l-66.9-66.9c-5.4-5.4-12.5-8.2-19.6-8.3h-37.8v9.5h6.6c-4.7 5.2-7.1 11.7-7.2 18.3l-8.8-8.8-9.5 18.6 75.7 75.7 8-7.9zm16.5 3.1l-66.9-66.9c-7.4-7.4-7.4-19.4 0-26.8.1-.1.2-.2.4-.3l70.5 70.5s9 9 .7 26.9c-1.8-.9-3.3-2-4.7-3.4z"/><path fill="#7FAB67" d="M130.8 196.4l-14.5-14.5v-2.8h-2.8l-7.8-7.8c-2 .9-3.9 2.2-5.6 3.9-1.2 1.2-2.2 2.5-3 3.9h-2.6v28.4h21.7v-.2c3.9-.6 7.6-2.3 10.6-5.3 1.8-1.7 3.1-3.6 4-5.6z"/><path fill="#E45D53" d="M74.6 208.7l66.9 66.9c11.1 11.1 29.1 11.1 40.1 0 11.1-11.1 11.1-29.1 0-40.1l-66.9-66.9c-11.1-11.1-29.1-11.1-40.1 0-11.1 11-11.1 29 0 40.1zm6.6-6.7c-7.4-7.4-7.4-19.4 0-26.8 7.4-7.4 19.4-7.4 26.8 0l66.9 66.9c7.4 7.4 7.4 19.4 0 26.8-7.4 7.4-19.4 7.4-26.8 0l-66.9-66.9z"/><circle fill="#37433E" cx="161.5" cy="255.5" r="18.9"/><circle fill="#E45D53" cx="161.5" cy="255.5" r="4.7"/><circle fill="#37433E" cx="94.6" cy="188.6" r="18.9"/><circle fill="#E45D53" cx="94.6" cy="188.6" r="4.7"/><path stroke="#F1D511" stroke-width="4" stroke-miterlimit="10" fill="none" d="M463.7 49.7v47.3"/><path stroke="#7FAB67" stroke-width="16" stroke-linecap="round" stroke-miterlimit="10" fill="none" d="M388 132.5l75.7-75.7"/><circle fill="#F1D511" cx="392.7" cy="132.5" r="23.7"/><circle fill="#309BB2" cx="392.7" cy="132.5" r="9.5"/><path fill="#E45D53" d="M255.5 47.3h94.6v236.6h-94.6z"/><path fill="#309BB2" d="M274.4 113.6l47.3 47.3v123h-47.3z"/><path fill="#F8F4E4" d="M274.4 113.6l47.3 47.3h56.8l-47.3-47.3z"/><path fill="#E45D53" d="M463.7 123h37.9v37.9h-37.9z"/><path fill="#37433E" d="M444.7 123h18.9v37.9h-18.9z"/><path fill="#F1D511" d="M490.9 160.9h-169.2c-15.7 0-28.4 12.7-28.4 28.4s12.7 28.4 28.4 28.4h169.1c15.7 0 28.4-12.7 28.4-28.4s-12.6-28.4-28.3-28.4zm0 47.3h-169.2c-10.5 0-18.9-8.5-18.9-18.9 0-10.5 8.5-18.9 18.9-18.9h169.1c10.5 0 18.9 8.5 18.9 18.9.1 10.4-8.4 18.9-18.8 18.9z"/><circle fill="#37433E" cx="321.7" cy="189.3" r="18.9"/><circle fill="#E45D53" cx="321.7" cy="189.3" r="4.7"/><circle fill="#E45D53" cx="490.9" cy="189.3" r="18.9"/><circle fill="#F8F4E4" cx="490.9" cy="189.3" r="4.7"/><path fill="#37433E" d="M359.6 132.5h28.4v151.4h-28.4z"/><path fill="#E45D53" d="M388 132.5h37.9v151.4h-37.9z"/><path fill="#7FAB67" d="M435.3 273.7l75.7-75.7-9.5-18.9-8.8 8.8c-.1-6.6-2.6-13.1-7.2-18.3h6.6v-9.5h-37.7c-7.1.1-14.2 2.9-19.6 8.3l-66.9 66.9c-11.1 11.1-11.1 29.1 0 40.1 5.4 5.4 12.4 8.1 19.4 8.3h37.7v-9.5h-6.3l8.7-8.7 7.9 8.2zm-29.1-1.4c-8.3-17.9.7-26.9.7-26.9l70.5-70.5c.1.1.2.2.4.3 7.4 7.4 7.4 19.4 0 26.8l-66.9 66.9c-1.5 1.4-3 2.5-4.7 3.4z"/><path fill="#37433E" d="M470.4 179.1h21.7v28.4h-21.7zM486.5 175.2c-1.7-1.7-3.6-2.9-5.6-3.9l-25 25c.9 2 2.2 3.9 3.9 5.6 7.4 7.4 19.4 7.4 26.8 0 7.3-7.3 7.3-19.3-.1-26.7z"/><path fill="#F1D511" d="M512.1 168.5c-11.1-11.1-29.1-11.1-40.1 0l-66.9 66.9c-11.1 11.1-11.1 29.1 0 40.1 11.1 11.1 29.1 11.1 40.1 0l66.9-66.9c11.1-11 11.1-29 0-40.1zm-73.6 100.4c-7.4 7.4-19.4 7.4-26.8 0-7.4-7.4-7.4-19.4 0-26.8l66.9-66.9c7.4-7.4 19.4-7.4 26.8 0 7.4 7.4 7.4 19.4 0 26.8l-66.9 66.9z"/><circle fill="#E45D53" cx="425.1" cy="255.5" r="18.9"/><circle fill="#F8F4E4" cx="425.1" cy="255.5" r="4.7"/><circle fill="#E45D53" cx="492.1" cy="188.6" r="18.9"/><circle fill="#F8F4E4" cx="492.1" cy="188.6" r="4.7"/><path fill="#F1D511" d="M473.1 132.5h18.9v18.9h-18.9z"/><path fill="#37433E" d="M463.7 227.1h28.4v56.8h-28.4z"/><path fill="#E45D53" d="M492.1 227.1h47.3v56.8h-47.3z"/><path fill="#309BB2" d="M501.5 236.6h28.4v37.9h-28.4z"/><path fill="#F1D511" d="M529.9 236.6l-14.2 18.9-14.2-18.9z"/><path fill="#7FAB67" d="M529.9 274.4l-14.2-18.9-14.2 18.9z"/><path fill="#37433E" d="M302.8 56.8c-15.7 0-28.4 12.7-28.4 28.4v28.4h56.8v-28.4c0-15.7-12.7-28.4-28.4-28.4z"/><path fill="#309BB2" d="M246 208.2h47.3v75.7h-47.3z"/><path fill="#F1D511" d="M293.3 208.2h56.8v75.7h-56.8z"/><path fill="#7FAB67" d="M302.8 217.6h37.9v56.8h-37.9z"/><path fill="#E45D53" d="M302.8 217.6l18.9 28.4 19-28.4z"/><path fill="#309BB2" d="M340.7 274.4l-19-28.4-18.9 28.4z"/><path fill="#37433E" d="M255.5 217.6h28.4v56.8h-28.4zM179.8 227.1h28.4v56.8h-28.4z"/><path fill="#F1D511" d="M208.2 227.1h47.3v56.8h-47.3z"/><path fill="#E45D53" d="M217.6 236.6h28.4v37.9h-28.4z"/><path fill="#F1D511" d="M350.1 47.3l-75.7-47.3-18.9 47.3z"/><path fill="#309BB2" d="M274.4 0l-66.2 47.3h47.3z"/><path stroke="#F1D511" stroke-width="4" stroke-linecap="round" stroke-miterlimit="10" fill="none" d="M454.2 113.6l9.5-19 9.4 19"/><circle fill="#E45D53" cx="463.7" cy="97" r="9.5"/><circle fill="#9CD4DE" cx="463.7" cy="97" r="2.4"/><path fill="#309BB2" d="M0 217.6h37.9v66.2h-37.9z"/><path fill="#F1D511" d="M37.9 217.6h56.8v66.2h-56.8z"/><path fill="#7FAB67" d="M47.3 227.1h37.9v47.3h-37.9z"/><path fill="#37433E" d="M9.5 227.1h18.9v47.3h-18.9z"/><path fill="#E45D53" d="M47.3 227.1h37.9v9.5h-37.9z"/><path fill="#37433E" d="M567.8 265h56.8v9.5h-56.8z"/><path fill="#E45D53" d="M559.9 40.3c1.7-1.4 4.5-1.4 6.3 0l4.5 3.6c1.7 1.4 4.9 2.1 7.1 1.7l5.7-1.1c2.2-.4 4.7.9 5.6 2.9l2.3 5.3c.9 2 3.3 4.2 5.4 4.8l5.5 1.7c2.1.6 3.7 3 3.6 5.2l-.4 5.8c-.1 2.2 1 5.3 2.6 6.8l4.1 4.1c1.6 1.5 1.9 4.3.8 6.2l-3 4.9c-1.1 1.9-1.5 5.1-.9 7.2l1.8 5.5c.7 2.1-.3 4.7-2.2 5.9l-5 3c-1.9 1.1-3.7 3.8-4.1 6l-1 5.7c-.4 2.2-2.5 4-4.7 4.2l-5.8.3c-2.2.1-5.1 1.6-6.4 3.4l-3.7 4.6c-1.3 1.7-4.1 2.4-6.1 1.5l-5.3-2.4c-2-.9-5.3-.9-7.3 0l-5.3 2.4c-2 .9-4.7.2-6.1-1.5l-3.5-4.6c-1.3-1.7-4.2-3.3-6.4-3.4l-5.8-.3c-2.2-.1-4.3-2-4.7-4.2l-1-5.7c-.4-2.2-2.2-4.9-4.1-6l-5-3c-1.9-1.1-2.9-3.8-2.2-5.9l1.8-5.5c.7-2.1.3-5.3-.9-7.2l-3-4.9c-1.1-1.9-.8-4.7.8-6.2l4.1-4.1c1.6-1.5 2.7-4.6 2.6-6.8l-.4-5.8c-.1-2.2 1.5-4.5 3.6-5.2l5.5-1.7c2.1-.6 4.6-2.8 5.4-4.8l2.3-5.3c.9-2 3.4-3.3 5.6-2.9l5.7 1.1c2.2.4 5.3-.4 7.1-1.7l4.5-3.6z"/><circle fill="#F1D511" cx="563" cy="89.2" r="37.9"/><path fill="#37433E" d="M534.6 89.2c0 10.5 8.5 18.9 18.9 18.9 10.5 0 18.9-8.5 18.9-18.9h-37.8z"/><circle fill="#F8F4E4" cx="567.8" cy="75" r="4.7"/><circle fill="#F8F4E4" cx="539.4" cy="75" r="4.7"/><path fill="#E45D53" d="M544.4 105.8c2.7 1.5 5.8 2.4 9.2 2.4 3.3 0 6.4-.9 9.2-2.4-1.1-4.1-4.7-7.1-9.2-7.1s-8.1 3-9.2 7.1z"/></svg>