<svg width="220" height="260" viewBox="0 0 220 260" xmlns="http://www.w3.org/2000/svg">
  <g>
    <path d="M191.43 114.643c0 47.34-38.377 85.714-85.716 85.714-47.34 0-85.714-38.375-85.714-85.714 0-47.34 38.375-85.714 85.714-85.714 47.34 0 85.715 38.374 85.715 85.713" id="Fill-1" fill="#9CD4DE"/>
    <path d="M105.714 88.93c-1.535 0-3.016.22-4.43.6-.73-3.998-4.22-7.03-8.427-7.03-2.497 0-4.74 1.075-6.305 2.78-4.245-3.093-9.47-4.923-15.123-4.923-2.693 0-5.288.416-7.726 1.183-6.286-8.987-15.927-15.453-27.108-17.574C26.17 78.163 20 95.68 20 114.643c0 12.18 2.556 23.758 7.137 34.25.477.015.953.036 1.434.036 14.544 0 27.386-7.252 35.134-18.327 2.438.767 5.033 1.183 7.725 1.183 9.69 0 18.124-5.363 22.507-13.28 3.072 2.912 7.21 4.708 11.777 4.708 9.47 0 17.143-7.675 17.143-17.143 0-9.466-7.674-17.14-17.143-17.14" id="Fill-2" fill="#F9F4E3"/>
    <path d="M43.58 127.5c-12.466 0-15.266-5.156-23.394-7.47 1.07 17.218 7.205 33.06 16.956 46.04h137.145c9.43-12.55 15.47-27.783 16.827-44.343-5.24 2.5-9.037 5.773-18.966 5.773-16.07 0-16.07-8.57-32.138-8.57-16.07 0-16.07 8.57-32.142 8.57-16.072 0-16.072-8.57-32.143-8.57-16.07 0-16.07 8.57-32.144 8.57" id="Fill-3" fill="#9CD4DE"/>
    <path d="M140 183.214h17.144c20.817-15.638 34.285-40.53 34.285-68.57V71.785H140v111.428" id="Fill-4" fill="#E55C53"/>
    <path d="M114.286 71.786H140v102.857h-25.714V71.786z" id="Fill-5" fill="#F2D509"/>
    <path d="M131.43 93.214c0 2.367-1.92 4.286-4.287 4.286s-4.286-1.92-4.286-4.286c0-2.367 1.92-4.285 4.286-4.285 2.367 0 4.286 1.917 4.286 4.284" id="Fill-6" fill="#36423D"/>
    <path d="M122.857 93.214h8.572v38.572h-8.573V93.214z" id="Fill-7" fill="#36423D"/>
    <path d="M88.57 148.93c0-4.735 3.84-8.573 8.573-8.573v-8.57H71.43c-9.47 0-17.144 7.674-17.144 17.142 0 9.466 7.675 17.14 17.143 17.14h25.713v-8.57c-4.734 0-8.572-3.838-8.572-8.57" id="Fill-8" fill="#7EAB67"/>
    <path d="M122.857 140.357h8.572v25.714h-8.573v-25.713z" id="Fill-9" fill="#36423D"/>
    <path d="M97.143 140.357h34.286v-8.57H97.142c-9.467 0-17.143 7.674-17.143 17.142 0 9.466 7.676 17.14 17.143 17.14h34.286v-8.57H97.142c-4.734 0-8.572-3.838-8.572-8.57 0-4.735 3.84-8.573 8.573-8.573" id="Fill-10" fill="#36423D"/>
    <path d="M105.714 148.93c0 4.732-3.838 8.57-8.57 8.57-4.735 0-8.573-3.838-8.573-8.57 0-4.735 3.84-8.573 8.573-8.573 4.733 0 8.57 3.838 8.57 8.572" id="Fill-11" fill="#E55C53"/>
    <path d="M99.286 148.93c0 1.18-.96 2.14-2.143 2.14-1.184 0-2.143-.96-2.143-2.14 0-1.185.96-2.144 2.143-2.144 1.184 0 2.143.96 2.143 2.143" id="Fill-12" fill="#36423D"/>
    <path d="M148.57 106.07h8.573v60h-8.572v-60z" id="Fill-13" fill="#F9F4E3"/>
    <path d="M157.143 106.07h21.428v51.43h-21.427v-51.43z" fill="#F2D509"/>
    <path d="M181.254 155.166c-2.845-1.13-6.276-1.952-11.244-1.952-16.07 0-16.07 8.572-32.142 8.572-16.072 0-16.072-8.572-32.143-8.572-16.07 0-16.07 8.572-32.144 8.572-16.07 0-16.07-8.572-32.142-8.572-4.977 0-8.412.823-11.26 1.958 14.46 26.896 42.86 45.185 75.536 45.185 32.68 0 61.08-18.29 75.54-45.19" fill="#309AB1"/>
    <path d="M84.286 106.07h21.428v25.716H84.286V106.07z" fill="#7EAB67"/>
    <path d="M105.714 106.07h12.857v25.716h-12.856V106.07z" fill="#36423D"/>
    <path d="M84.286 106.07L95 118.93l10.714-12.86H84.286" fill="#F2D509"/>
    <path d="M84.286 131.786L95 118.93l10.714 12.856H84.286" fill="#309AB1"/>
    <path d="M163.57 114.643h8.573m-8.572 6.428h8.573" stroke="#36423D" stroke-width="4" stroke-linecap="round"/>
    <path d="M88.57 80.357v-68.57" stroke="#F9F4E3" stroke-width="4"/>
    <path d="M141.147 49.21L95.69 3.753c-4.184-4.184-10.967-4.184-15.15 0-4.186 4.184-4.186 10.967 0 15.152l45.455 45.457c4.184 4.184 10.97 4.184 15.152 0 4.184-4.184 4.184-10.968 0-15.152zM107.37 36.644v-6.06h6.06l.887.886v6.062h-6.06l-.888-.888zm9.09-3.03l3.92 3.918h-3.92v-3.92zm-9.09-5.174v-3.918l3.917 3.918h-3.918zm-3.03-6.948l.886.887v6.06h-6.06l-.89-.887v-6.06h6.063zm-6.063-2.143v-3.92l3.92 3.92h-3.92zm-2.142 6.06l-3.92-3.918h3.92v3.918zm9.09 5.173V34.5l-3.916-3.917h3.916zm9.092 9.092v3.917l-3.917-3.917h3.917zm3.03 6.947l-.887-.887v-6.06h6.062l.887.887v6.06h-6.062zm6.062 2.143v3.918l-3.92-3.918h3.92zm2.142-6.06l3.917 3.917h-3.918v-3.917zM85.084 8.298c1.67-1.67 4.39-1.67 6.06 0l4.99 4.99v6.06h-6.06l-4.99-4.99c-1.672-1.67-1.672-4.388 0-6.06zM136.6 59.816c-1.67 1.67-4.388 1.67-6.06 0l-4.988-4.99v-6.06h6.06l4.99 4.99c1.67 1.67 1.67 4.39 0 6.06z" fill="#F2D509"/>
    <path d="M95 11.786c0 3.55-2.878 6.428-6.43 6.428-3.55 0-6.427-2.878-6.427-6.428s2.878-6.43 6.428-6.43c3.552 0 6.43 2.88 6.43 6.43" fill="#E55C53"/>
    <path d="M90.714 11.786c0 1.183-.96 2.143-2.143 2.143-1.182 0-2.14-.96-2.14-2.144 0-1.184.957-2.143 2.14-2.143 1.185 0 2.144.96 2.144 2.143" fill="#36423D"/>
    <path d="M163.57 127.5h8.573" stroke="#36423D" stroke-width="4" stroke-linecap="round"/>
    <path d="M140 71.786V46.07h-8.57l-25.716 25.716H140" fill="#309AB1"/>
    <path d="M140 46.07h34.286L200 71.787h-60V46.07" fill="#36423D"/>
    <path d="M56.52 184.814c13.926 9.782 30.883 15.543 49.194 15.543 19.099 0 36.734-6.253 50.983-16.814-4.234-2.247-8.24-4.614-16.687-4.614-16.07 0-16.07 8.57-32.142 8.57-16.072 0-16.072-8.57-32.143-8.57-10.08 0-13.84 3.37-19.206 5.884" fill="#9CD4DE"/>
    <path d="M80 99.643L88.57 82.5l8.573 17.143" stroke="#F2D509" stroke-width="4" stroke-linecap="round"/>
    <path d="M97.143 84.643c0 4.733-3.838 8.57-8.572 8.57-4.732 0-8.57-3.837-8.57-8.57 0-4.734 3.838-8.572 8.57-8.572 4.735 0 8.573 3.84 8.573 8.573" fill="#E55C53"/>
    <path d="M90.714 84.643c0 1.183-.96 2.143-2.143 2.143-1.182 0-2.14-.96-2.14-2.143 0-1.184.957-2.143 2.14-2.143 1.185 0 2.144.96 2.144 2.143" fill="#9CD4DE"/>
  </g>
  <g>
    <path d="M50.5 244.147l4.103-2.52c1.12 2.007 2.285 3.407 4.896 3.407 2.423 0 4.15-1.12 4.15-4.902v-22.735h5.035v22.83c0 6.3-3.777 9.336-9 9.336-4.85 0-7.646-2.428-9.186-5.416M79.176 236.678c-1.678 0-2.89.653-3.823 1.727l-2.845-2.614c1.772-2.006 4.104-3.034 6.948-3.034 4.523 0 7.32 2.334 7.32 7.05v9.336h-4.662v-1.447c-1.072 1.26-2.612 1.868-4.477 1.868-3.217 0-5.922-1.588-5.922-5.323 0-3.127 2.752-4.668 6.25-4.668h4.15c-.048-2.147-1.26-2.894-2.94-2.894zm-.98 6.068c-1.21 0-1.865.607-1.865 1.54 0 .888.608 1.542 2.147 1.542 2.098 0 3.637-1.12 3.637-2.427v-.654h-3.917zM88.082 233.177h5.223l3.824 7.748 3.682-7.748h4.664l-8.534 16.386h-.187l-8.672-16.386M113.636 236.678c-1.68 0-2.89.653-3.823 1.727l-2.845-2.614c1.772-2.006 4.104-3.034 6.948-3.034 4.523 0 7.32 2.334 7.32 7.05v9.336h-4.662v-1.447c-1.073 1.26-2.61 1.868-4.477 1.868-3.217 0-5.92-1.588-5.92-5.323 0-3.127 2.75-4.668 6.247-4.668h4.15c-.047-2.147-1.26-2.894-2.938-2.894zm-.98 6.068c-1.21 0-1.864.607-1.864 1.54 0 .888.606 1.542 2.145 1.542 2.098 0 3.637-1.12 3.637-2.427v-.654h-3.917zM128.184 240.786c1.446 2.8 3.917 4.295 7.18 4.295 3.358 0 5.597-1.586 5.597-4.155 0-2.987-2.238-4.014-5.035-5.275l-2.19-.98c-4.664-2.054-7.835-4.48-7.835-9.43 0-4.855 3.59-8.262 8.813-8.262 4.057 0 7.04 1.633 9.046 4.995l-3.778 2.474c-1.212-2.054-2.798-3.08-5.176-3.08-2.564 0-4.057 1.493-4.057 3.686 0 2.522 1.538 3.502 4.988 5.043l2.192.98c4.804 2.147 7.975 4.34 7.975 9.71 0 5.836-4.477 8.777-10.492 8.777-5.364 0-9.28-2.615-11.425-6.676l4.196-2.1M148.702 241.16c0-4.855 3.637-8.404 8.393-8.404 3.218 0 5.222 1.12 6.668 2.8l-3.077 2.85c-.793-.888-2.005-1.588-3.45-1.588-2.332 0-3.732 1.914-3.732 4.34 0 2.43 1.4 4.343 3.824 4.343 1.772 0 2.89-.886 3.637-1.68l3.078 2.802c-1.54 1.774-3.497 2.94-6.855 2.94-4.85 0-8.486-3.547-8.486-8.403M166.934 233.177h4.663v2.473c1.073-2.193 2.89-2.894 4.57-2.894 1.12 0 1.91.327 2.518.7l-1.492 4.015c-.607-.326-1.213-.512-2.006-.512-2.238 0-3.59 1.354-3.59 4.668v7.516h-4.663v-15.965M180.503 225.847c0-1.68 1.398-2.94 2.937-2.94 1.586 0 2.938 1.26 2.938 2.94s-1.352 2.942-2.938 2.942c-1.54 0-2.937-1.263-2.937-2.943zm.606 7.33h4.662v15.965h-4.663v-15.965zM189.688 233.177h4.664v1.82c.885-1.4 2.517-2.24 4.942-2.24 4.15 0 7.507 3.548 7.507 8.402 0 4.855-3.356 8.403-7.506 8.403-2.425 0-4.057-.84-4.942-2.24v11.716h-4.664v-25.863zm12.31 7.982c0-2.615-1.54-4.296-3.917-4.296-2.376 0-3.822 1.68-3.822 4.295 0 2.614 1.446 4.294 3.823 4.294 2.38 0 3.918-1.68 3.918-4.295zM208.9 237.05v-3.873h1.865v-10.41h4.663v10.41h3.73v3.874h-3.73v6.49c0 1.634.513 2.007 1.352 2.007.56 0 1.026-.28 1.4-.56l1.817 3.268c-.792.654-2.052 1.308-4.01 1.308-3.03 0-5.222-1.495-5.222-5.93v-6.582H208.9" fill="#36423D"/>
    <path d="M26.74 223.574c.97-.174 1.506-1.306 1.262-2.173-.278-.986-1.254-1.406-2.222-1.232l-24.26 4.356c-.97.174-1.505 1.306-1.26 2.172.276.988 1.253 1.408 2.22 1.234 2.624-.47 5.248-.942 7.87-1.413l-2.81 21.61c-.126.957.915 1.766 1.805 1.766 1.08 0 1.682-.81 1.806-1.766.968-7.425 1.934-14.85 2.9-22.274l12.69-2.28" fill="#F2D509"/>
    <path d="M27.115 231.304c-2.227.48-4.154 1.7-5.723 3.275.03-.393.072-.784.1-1.176.067-.962-.873-1.766-1.807-1.766-1.035 0-1.74.806-1.806 1.766-.152 2.166-.365 4.327-.638 6.48-.03.246-.064.49-.096.735l-.027.2-.052.356c-.077.538-.158 1.074-.243 1.61-.176 1.123-.37 2.24-.582 3.357-.174.946.25 1.9 1.262 2.172.886.238 2.044-.286 2.222-1.233.274-1.49.595-2.972 1.045-4.422.106-.34.222-.675.343-1.01.06-.167.125-.333.19-.498l.1-.246.016-.038c.006-.01.007-.015.014-.03.315-.708.683-1.394 1.102-2.05.165-.26.343-.51.527-.76.025-.03.05-.064.075-.096v-.002c.123-.15.25-.295.38-.44.438-.49.925-.938 1.442-1.35.067-.05.15-.113.185-.136.126-.09.256-.172.385-.255.292-.185.596-.35.906-.504.075-.037.15-.07.227-.104.05-.017.33-.13.406-.157.327-.114.665-.2 1.006-.275.96-.207 1.51-1.28 1.26-2.172-.27-.964-1.26-1.44-2.22-1.234M43.712 226.752c-.774-.443-2.077-.25-2.47.633-1.966 4.397-3.773 8.86-5.413 13.378-.222-.512-.42-1.033-.59-1.563-.098-.31-.183-.627-.262-.943l-.053-.224c-.035-.174-.066-.35-.096-.524-.124-.735-.187-1.48-.205-2.225-.025-1.007-1.032-1.774-2.02-1.7-1.066.08-1.772.977-1.747 1.983.08 3.27 1.112 6.47 2.883 9.23.134.208.31.373.512.5-1.043 3.11-2.014 6.243-2.895 9.404-.13.46-.256.922-.38 1.385-.252.93.306 1.915 1.26 2.173.943.253 1.97-.304 2.222-1.234 1.252-4.623 2.676-9.2 4.27-13.72.795-2.26 1.636-4.505 2.517-6.735.44-1.114.893-2.225 1.354-3.332.222-.53.447-1.06.673-1.59l.113-.264c.027-.062.09-.207.103-.24.133-.308.268-.616.403-.923.154-.35.31-.7.467-1.052.394-.882.274-1.888-.648-2.416" fill="#F2D509"/>
  </g>
</svg>
