<svg width="165" height="150" viewBox="0 0 66 60">
  <g fill="none">
    <path d="M9.163 2.963h53.333v53.333h-53.333v-53.333zm-2.963 56.296h59.259v-59.259h-59.259v59.259z" fill="#fff"/>
    <path d="M48.895 30.555l-1.421-.609c-2.437-1.056-3.493-1.746-3.493-3.452 0-1.381 1.056-2.436 2.721-2.436 1.624 0 2.68.69 3.655 2.436l4.426-2.843c-1.867-3.289-4.467-4.547-8.081-4.547-5.076 0-8.324 3.248-8.324 7.512 0 4.63 2.721 6.823 6.822 8.569l1.421.609c2.599 1.137 4.142 1.827 4.142 3.776 0 1.624-1.502 2.802-3.857 2.802-2.803 0-4.387-1.461-5.604-3.452l-4.63 2.681c1.665 3.289 5.076 5.807 10.356 5.807 5.401 0 9.421-2.802 9.421-7.919 0-4.751-2.721-6.863-7.553-8.934" fill="#fff"/>
    <path d="M33.585 38.839v-19.411h-5.685v19.33c0 2.843-1.178 3.573-3.045 3.573-1.95 0-2.762-1.34-3.655-2.924l-4.63 2.802c1.34 2.842 3.98 5.198 8.528 5.198 5.035 0 8.487-2.68 8.487-8.568" fill="#fff"/>
  </g>
</svg>
