<svg xmlns="http://www.w3.org/2000/svg" width="275" height="61.6" viewBox="124.5 -23.1 275 61.6" enable-background="new 124.5 -23.1 275 61.6"><path fill="#fff" d="M187.6-20v55.4h-55.4v-55.4h55.4m3.1-3h-61.6v61.6h61.6v-61.6zm-16.5 31.6l-1.4-.6c-2.5-1.1-3.7-1.7-3.7-3.6 0-1.4 1.1-2.5 2.9-2.5 1.7 0 2.7.7 3.8 2.5l4.6-3c-1.9-3.4-4.6-4.7-8.3-4.7-5.3 0-8.7 3.4-8.7 7.7 0 4.8 2.9 7.1 7.1 9l1.4.6c2.6 1.1 4.3 1.9 4.3 4 0 1.7-1.5 3-4 3-3 0-4.6-1.5-5.8-3.7l-4.8 2.7c1.7 3.4 5.3 6 10.8 6 5.6 0 9.8-3 9.8-8.2-.1-4.8-2.9-7-8-9.2zm-15.8 8.7v-20.2h-6v20.1c0 3-1.2 3.7-3.2 3.7s-2.9-1.4-3.8-3l-4.9 3c1.4 3 4.2 5.4 8.9 5.4 5.3-.2 9-2.9 9-9z"/><circle fill="#3F4A43" cx="130.6" cy="20" r="6.1"/><path fill="#fff" d="M199.7 15.6l2.6-1.7c.8 1.4 1.6 2.3 3.3 2.3 1.7 0 3-.8 3-3.4v-15.3h3.4v15.5c0 4.3-2.5 6.3-6.1 6.3-3.3-.1-5.1-1.7-6.2-3.7zm21.7-7.6c-1.7 0-2.7.8-3.5 1.6l-1.8-1.8c1.1-1.4 2.7-2.3 5.5-2.3 3.2 0 5.6 1.7 5.6 5.7v7.7h-3.2l.1-1.9c-1 1.4-2.2 2.2-4.3 2.2-2.6 0-4.8-1.2-4.8-4.3 0-2.7 2.2-4 5.2-4h3.7c.2-2-.7-2.9-2.5-2.9zm-.8 5.2c-1.4 0-2.3.5-2.3 1.7s.9 1.7 2.5 1.7c1.8 0 3.2-.9 3.2-2.3v-1.1h-3.4zm8.6-7.5h3.6l2.6 5.8c.5 1.1.9 2.9.9 2.9s.4-1.7.8-2.9l2.6-5.8h3.3l-6.7 13.5h-.4l-6.7-13.5zm21.2 2.3c-1.7 0-2.7.8-3.5 1.6l-1.8-1.8c1.1-1.4 2.7-2.3 5.5-2.3 3.2 0 5.6 1.7 5.6 5.7v7.7h-3.2l.1-1.9c-.9 1.4-2.1 2.2-4.2 2.2-2.6 0-4.8-1.2-4.8-4.3 0-2.7 2.2-4 5.2-4h3.7c.1-2-.8-2.9-2.6-2.9zm-.8 5.2c-1.4 0-2.3.5-2.3 1.7s.9 1.7 2.5 1.7c1.8 0 3.2-.9 3.2-2.3v-1.1h-3.4zm9.2 1.6l2.7-1.5c1 1.7 2.3 3 4.9 3 2.1 0 3.7-1.1 3.7-3s-1.2-2.6-3.7-3.7l-1.4-.6c-3.2-1.4-5-3-5-6.3 0-3.2 2.4-5.5 6-5.5 2.9 0 4.8 1.1 6.1 3.4l-2.6 1.6c-.8-1.4-1.7-2-3.5-2-1.7 0-2.7 1.1-2.7 2.4 0 1.6.9 2.3 3.1 3.4l1.4.6c3.7 1.6 5.6 3.4 5.6 6.8 0 3.8-3 5.9-7 5.9s-6.4-2.1-7.6-4.5zm17.6-2.5c0-4 3-6.9 7.1-6.9 2.4 0 4.1.9 5.4 2.5l-2.3 1.8c-.6-.9-1.7-1.5-3.1-1.5-2.3 0-3.8 1.7-3.8 4.1s1.4 4.1 3.8 4.1c1.6 0 2.5-.7 3.3-1.4l2 1.9c-1.3 1.4-2.9 2.3-5.5 2.3-3.9 0-6.9-2.8-6.9-6.9zm15.5-6.6h3.2v2.4c.9-2 2.3-2.7 3.9-2.7.9 0 1.6.2 2.1.5l-1.1 2.9c-.5-.2-1-.5-1.7-.5-1.9 0-3.2 1.1-3.2 4.1v6.6h-3.2v-13.3zm11.4-5.1c0-1.2 1-2 2-2 1.1 0 2.1.8 2.1 2s-1 2-2.1 2-2-.8-2-2zm.5 5.1h3.3v13.2h-3.3v-13.2zm7.3 0h3.3l-.1 2.5c.8-1.6 2.4-2.7 4.7-2.7 3.4 0 6.1 2.9 6.1 6.8s-2.7 6.9-6.2 6.9c-2.2 0-3.8-1.1-4.6-2.5v9h-3.3v-20h.1zm10.7 6.6c0-2.3-1.4-4.1-3.8-4.1s-3.9 1.6-3.9 4.1 1.5 4.2 3.9 4.2c2.4-.1 3.8-1.7 3.8-4.2zm7.3 2.2v-6.1h-2v-2.7h2v-6.9h3.2v6.9h3.6v2.6h-3.6v6.1c0 1.5.5 1.9 1.3 1.9s1.2-.4 1.6-.6l1.5 2.1c-.7.6-1.7 1.2-3.4 1.2-2.3.2-4.2-1-4.2-4.5z"/><path fill="#F5E89C" d="M340 17c0-1.2 1-2.1 2.1-2.1s2.1.9 2.1 2.1-1 2.1-2.1 2.1c-1 .1-2.1-.8-2.1-2.1zm6.6-4.7c0-4 3-6.9 7.1-6.9 2.4 0 4.1.9 5.4 2.5l-2.3 1.8c-.6-.9-1.7-1.5-3.1-1.5-2.3 0-3.8 1.7-3.8 4.1s1.4 4.1 3.8 4.1c1.6 0 2.5-.7 3.3-1.4l2.1 1.9c-1.3 1.4-2.9 2.3-5.5 2.3-3.9 0-7-2.8-7-6.9zm14.7 0c0-4 3.2-6.9 7.1-6.9 4.1 0 7.1 3 7.1 6.9s-3.1 6.9-7.1 6.9c-3.9 0-7.1-2.9-7.1-6.9zm11.1 0c0-2.4-1.4-4.2-3.9-4.2-2.3 0-3.9 1.7-3.9 4.2s1.5 4.2 3.9 4.2 3.9-1.8 3.9-4.2zm6.6-6.6h3.2l-.1 2.3c.9-1.7 2.2-2.5 4-2.5 1.9 0 3.2.9 3.9 2.5 1.1-1.6 2.6-2.5 4.6-2.5 3.2 0 5 2 5 5.5v8h-3.2v-7.8c0-1.8-.7-2.9-2.4-2.9-1.8 0-3 1.1-3 3.4v7.2h-3.4v-7.7c0-1.8-.6-2.9-2.4-2.9-1.9 0-3 1.1-3 3.4v7.2h-3.2v-13.2z"/></svg>