<svg xmlns="http://www.w3.org/2000/svg" width="86" height="80" viewBox="0 0 86 80"><path fill="#fff" d="M82 4v72h-72v-72h72m4-4h-80v80h80v-80z"/><g fill="#fff"><path d="M64.6 41.2l-1.9-.8c-3.3-1.4-4.7-2.3-4.7-4.6 0-1.9 1.4-3.3 3.7-3.3 2.2 0 3.6.9 4.9 3.3l6-3.8c-2.5-4.4-6-6.1-10.9-6.1-6.9 0-11.2 4.4-11.2 10.1 0 6.2 3.7 9.2 9.2 11.6l1.9.8c3.5 1.5 5.6 2.5 5.6 5.1 0 2.2-2 3.8-5.2 3.8-3.8 0-5.9-2-7.6-4.7l-6.2 3.6c2.2 4.4 6.9 7.8 14 7.8 7.3 0 12.7-3.8 12.7-10.7-.1-6.4-3.7-9.3-10.3-12.1zM44 52.4v-26.2h-7.7v26.1c0 3.8-1.6 4.8-4.1 4.8-2.6 0-3.7-1.8-4.9-3.9l-6.3 3.8c1.8 3.8 5.4 7 11.5 7 6.8 0 11.5-3.6 11.5-11.6z"/></g><circle fill="#F1D511" cx="8" cy="56" r="8"/></svg>