<svg><symbol id="icon-calendar" viewBox="0 0 16 16"><path d="M15 0H1C.45 0 0 .45 0 1v14c0 .55.45 1 1 1h14c.55 0 1-.45 1-1V1c0-.55-.45-1-1-1zm-4 2c.552 0 1 .448 1 1s-.448 1-1 1-1-.448-1-1 .448-1 1-1zM5 2c.552 0 1 .448 1 1s-.448 1-1 1-1-.448-1-1 .448-1 1-1zM2 6h12v8H2V6z"/></symbol><symbol id="icon-check" viewBox="0 0 60 49"><path d="M0 26l10-10 13 11L50 0l10 10-37 39L0 26z" fill-rule="evenodd"/></symbol><symbol id="icon-external" viewBox="0 0 16 16"><path d="M16 1.7c0-.1 0-.1-.1-.2 0-.1 0-.1-.1-.2 0-.1-.1-.1-.1-.2s-.1-.1-.1-.2L15 .3c-.1 0-.1-.1-.2-.1s-.1-.1-.2-.1-.1 0-.2-.1c-.1 0-.1 0-.2-.1H2.1C1 0 0 1 0 2.1s1 2.1 2.1 2.1h6.6L.6 12.3c-.8.8-.8 2.2 0 3 .4.5 1 .7 1.5.7s1.1-.2 1.5-.6l8.1-8.1v6.6c0 1.2 1 2.1 2.1 2.1s2.1-1 2.1-2.1V2.1c.1-.1.1-.2.1-.4z"/></symbol><symbol id="icon-mail" viewBox="916 -624 2048 2048"><path d="M2042.1 556.1c-28.2 21.2-64.5 32.9-102.1 32.9s-73.8-11.7-102.1-32.9L1219.5 92.3v728h1441v-728l-618.4 463.8z"/><path d="M2660.5-20.3h-1441l377.7 283.2L1892 484.1c26.4 19.8 69.7 19.8 96.1 0L2282.9 263l377.6-283.3z"/></symbol><symbol id="icon-play" viewBox="916 -624 2048 2048"><path d="M1385.8 400v-639.9l554.2 320L2494.2 400 1940 719.9l-554.2 320"/></symbol><symbol id="icon-rss" viewBox="0 0 16 16"><path d="M0 0v3c7.2 0 13 5.8 13 13h3C16 7.2 8.8 0 0 0z"/><path d="M0 5v3c4.4 0 8 3.6 8 8h3C11 9.9 6.1 5 0 5z"/><circle cx="2.5" cy="13.5" r="2.5"/></symbol><symbol id="icon-star" viewBox="0 0 80 80"><path d="M39.998 7l11.25 21.318L75 32.43 58.2 49.716l3.43 23.858L40 62.94l-21.63 10.634 3.433-23.858L5 32.43l23.75-4.112L39.998 7" fill-rule="evenodd"/></symbol><symbol id="icon-submit" viewBox="0 0 80 80"><path d="M48.077 7v12.115C24.287 19.115 5 38.402 5 62.192c0 3.72.47 7.327 1.357 10.77 4.78-18.58 21.647-32.308 41.72-32.308v14.808L75 31.232 48.077 7z" fill-rule="evenodd"/></symbol><symbol id="icon-twitter" viewBox="0 0 2048 2048"><path d="M1812 536q-67 98-162 167 1 14 1 42 0 130-38 259.5T1497.5 1253 1313 1463.5t-258 146-323 54.5q-271 0-496-145 35 4 78 4 225 0 401-138-105-2-188-64.5T413 1161q33 5 61 5 43 0 85-11-112-23-185.5-111.5T300 838v-4q68 38 146 41-66-44-105-115t-39-154q0-88 44-163 121 149 294.5 238.5T1012 781q-8-38-8-74 0-134 94.5-228.5T1327 384q140 0 236 102 109-21 205-78-37 115-142 178 93-10 186-50z"/></symbol></svg>