<?xml version="1.0" encoding="utf-8"?>
<!-- Generator: Adobe Illustrator 18.1.1, SVG Export Plug-In . SVG Version: 6.00 Build 0)  -->
<!DOCTYPE svg PUBLIC "-//W3C//DTD SVG 1.1//EN" "http://www.w3.org/Graphics/SVG/1.1/DTD/svg11.dtd">
<svg version="1.1" id="Layer_1" xmlns="http://www.w3.org/2000/svg" xmlns:xlink="http://www.w3.org/1999/xlink" x="0px" y="0px"
	 width="16px" height="16px" viewBox="0 0 16 16" enable-background="new 0 0 16 16" xml:space="preserve">
<path d="M16,1.7c0-0.1,0-0.1-0.1-0.2c0-0.1,0-0.1-0.1-0.2c0-0.1-0.1-0.1-0.1-0.2c0-0.1-0.1-0.1-0.1-0.2c-0.2-0.2-0.4-0.4-0.6-0.6
	c-0.1,0-0.1-0.1-0.2-0.1c-0.1,0-0.1-0.1-0.2-0.1c-0.1,0-0.1,0-0.2-0.1c-0.1,0-0.1,0-0.2-0.1c-0.1,0-0.3,0-0.4,0H2.1C1,0,0,1,0,2.1
	s1,2.1,2.1,2.1h6.6l-8.1,8.1c-0.8,0.8-0.8,2.2,0,3C1,15.8,1.6,16,2.1,16s1.1-0.2,1.5-0.6l8.1-8.1v6.6c0,1.2,1,2.1,2.1,2.1
	s2.1-1,2.1-2.1V2.1C16,2,16,1.9,16,1.7z"/>
</svg>
