<svg xmlns="http://www.w3.org/2000/svg" width="90.3" height="84" viewBox="-9 -11.8 90.3 84" enable-background="new -9 -11.8 90.3 84"><path fill="#fff" d="M77-7.7v75.5h-75.5v-75.5h75.5m4.2-4.1h-84v84h84v-84zm-22.5 43.1l-1.9-.8c-3.4-1.5-5-2.3-5-4.9 0-1.9 1.5-3.4 4-3.4 2.3 0 3.7 1 5.2 3.4l6.3-4.1c-2.6-4.6-6.3-6.4-11.3-6.4-7.2 0-11.9 4.6-11.9 10.5 0 6.5 4 9.7 9.7 12.3l1.9.8c3.5 1.5 5.9 2.6 5.9 5.5 0 2.3-2 4.1-5.5 4.1-4.1 0-6.3-2-7.9-5l-6.5 3.7c2.3 4.6 7.2 8.2 14.7 8.2 7.6 0 13.4-4.1 13.4-11.2-.3-6.7-4.1-9.7-11.1-12.7zm-21.5 11.9v-27.6h-8.2v27.4c0 4.1-1.6 5-4.4 5s-4-1.9-5.2-4.1l-6.7 4.1c1.9 4.1 5.7 7.4 12.1 7.4 7.3-.2 12.4-3.9 12.4-12.2z"/><circle fill="#F1D511" cx="-.7" cy="46.8" r="8.3"/></svg>