<svg xmlns="http://www.w3.org/2000/svg" width="575" height="128.8" viewBox="-142 -33 575 128.8" enable-background="new -142 -33 575 128.8"><path fill="#F1D511" d="M-9.8-26.8v115.7h-115.7v-115.7h115.7m6.5-6.2h-128.9v128.8h128.9v-128.8zm-34.5 66l-3-1.3c-5.3-2.3-7.9-3.6-7.9-7.6 0-3 2.3-5.3 5.9-5.3 3.6 0 5.6 1.3 7.9 5.3l9.5-6.2c-3.9-7.2-9.5-9.9-17.4-9.9-11.2 0-18.1 7.2-18.1 16.1 0 10.2 5.9 14.8 14.8 18.7l3 1.3c5.6 2.3 8.9 3.9 8.9 8.2 0 3.6-3.3 6.2-8.2 6.2-6.2 0-9.5-3.3-12.2-7.9l-10.2 5.6c3.6 7.2 11.2 12.5 22.7 12.5 11.8 0 20.4-6.2 20.4-17.1.4-9.4-5.6-14-16.1-18.6zm-33.2 18.1v-42.1h-12.5v42.1c0 6.2-2.6 7.9-6.6 7.9-3.9 0-5.9-3-7.9-6.2l-10.2 6.2c3 6.2 8.9 11.2 18.7 11.2 11-.7 18.5-6.3 18.5-19.1z"/><circle fill="#313D38" cx="-129.2" cy="57" r="12.8"/><path fill="#313D38" d="M15.5 47.8l5.6-3.6c1.6 3 3.3 4.9 6.9 4.9s6.2-1.6 6.2-7.2v-31.9h7.2v32.5c0 8.9-5.3 13.2-12.8 13.2-7.2-.3-10.8-3.9-13.1-7.9zm45.3-16.1c-3.6 0-5.6 1.6-7.2 3.3l-3.6-3.6c2.3-3 5.6-4.9 11.5-4.9 6.6 0 11.8 3.6 11.8 11.8v16.1h-6.6l.3-3.9c-2 3-4.6 4.6-8.9 4.6-5.6 0-10.2-2.6-10.2-8.9 0-5.6 4.6-8.2 10.8-8.2h7.9c-.2-4.3-2.1-6.3-5.8-6.3zm-1.6 10.9c-3 0-4.9 1-4.9 3.6s2 3.6 5.3 3.6c3.6 0 6.6-2 6.6-4.9v-2.3h-7zm18.1-15.5h7.6l5.6 12.2c1 2.3 2 5.9 2 5.9s1-3.6 1.6-5.9l5.6-12.2h6.9l-14.2 28.3h-1c-.3 0-14.1-28.3-14.1-28.3zm44 4.6c-3.6 0-5.6 1.6-7.2 3.3l-3.6-3.6c2.3-3 5.6-4.9 11.5-4.9 6.6 0 11.8 3.6 11.8 11.8v16.1h-6.6l.3-3.9c-2 3-4.3 4.6-8.9 4.6-5.6 0-10.2-2.6-10.2-8.9 0-5.6 4.6-8.2 10.8-8.2h7.9c.2-4.3-1.8-6.3-5.8-6.3zm-1.6 10.9c-3 0-4.9 1-4.9 3.6s2 3.6 5.3 3.6c3.6 0 6.6-2 6.6-4.9v-2.3h-7zm19.4 3.6l5.6-3.3c2 3.6 4.9 6.2 10.2 6.2 4.3 0 7.9-2.3 7.9-6.2s-2.6-5.6-7.9-7.9l-3-1.3c-6.6-3-10.5-6.2-10.5-13.2 0-6.6 4.9-11.5 12.5-11.5 5.9 0 10.2 2.3 12.8 7.2l-5.6 3.3c-1.6-3-3.6-4.3-7.2-4.3s-5.6 2.3-5.6 4.9c0 3.3 2 4.9 6.6 7.2l3 1.3c7.9 3.3 11.8 7.2 11.8 14.1 0 7.9-6.2 12.5-14.8 12.5s-13.5-4.1-15.8-9zm36.8-5.3c0-8.2 6.2-14.5 14.8-14.5 4.9 0 8.5 2 11.2 5.3l-4.9 3.6c-1.3-2-3.6-3.3-6.6-3.3-4.9 0-7.9 3.6-7.9 8.5s3 8.5 7.9 8.5c3.3 0 5.3-1.3 6.9-3l4.3 3.9c-2.6 3-5.9 4.9-11.5 4.9-7.9.6-14.2-5.3-14.2-13.9zm32.2-13.8h6.6v4.9c2-4.3 4.9-5.6 8.2-5.6 2 0 3.3.3 4.3 1l-2.3 5.9c-1-.3-2-1-3.6-1-3.9 0-6.6 2.3-6.6 8.5v13.8h-6.6v-27.5zm24-10.8c0-2.6 2-4.3 4.3-4.3s4.3 1.6 4.3 4.3-2 4.3-4.3 4.3-4.3-1.7-4.3-4.3zm1 10.8h6.9v27.6h-6.9v-27.6zm15.5 0h6.9l-.3 5.3c1.6-3.3 4.9-5.6 9.9-5.6 7.2 0 12.8 5.9 12.8 14.1s-5.6 14.5-12.8 14.5c-4.6 0-7.9-2.3-9.5-5.3v18.7h-6.9v-41.7h-.1zm22.3 13.8c0-4.9-3-8.5-7.9-8.5s-8.2 3.3-8.2 8.5c0 5.3 3.3 8.9 8.2 8.9 5-.3 7.9-3.6 7.9-8.9zm15.1 4.6v-12.8h-4.3v-5.6h4.3v-14.4h6.6v14.5h7.6v5.6h-7.6v12.8c0 3.3 1 3.9 2.6 3.9s2.6-1 3.3-1.3l3.3 4.3c-1.3 1.3-3.6 2.6-7.2 2.6-4.6.3-8.6-2.3-8.6-9.6zm22.7 5.3c0-2.6 2-4.3 4.3-4.3s4.3 2 4.3 4.3c0 2.6-2 4.3-4.3 4.3-2 .3-4.3-1.7-4.3-4.3zm13.8-9.9c0-8.2 6.2-14.5 14.8-14.5 4.9 0 8.5 2 11.2 5.3l-4.9 3.6c-1.3-2-3.6-3.3-6.6-3.3-4.9 0-7.9 3.6-7.9 8.5s3 8.5 7.9 8.5c3.3 0 5.3-1.3 6.9-3l4.3 3.9c-2.6 3-5.9 4.9-11.5 4.9-7.6.6-14.2-5.3-14.2-13.9zm30.9 0c0-8.2 6.6-14.5 14.8-14.5 8.5 0 14.8 6.2 14.8 14.5s-6.6 14.5-14.8 14.5c-8.2 0-14.8-6.2-14.8-14.5zm23.1 0c0-4.9-3-8.9-8.2-8.9-4.9 0-8.2 3.6-8.2 8.9 0 5.3 3.3 8.9 8.2 8.9 4.9 0 8.2-3.9 8.2-8.9zm13.8-13.8h6.6l-.3 4.9c2-3.6 4.6-5.3 8.2-5.3 3.9 0 6.6 2 8.2 5.3 2.3-3.3 5.6-5.3 9.5-5.3 6.6 0 10.5 4.3 10.5 11.5v16.8h-6.6v-16.4c0-3.6-1.3-5.9-4.9-5.9-3.6 0-6.2 2.3-6.2 7.2v15.1h-7.3v-16c0-3.6-1.3-5.9-4.9-5.9-3.9 0-6.2 2.3-6.2 7.2v15.1h-6.6v-28.3z"/></svg>