<svg xmlns="http://www.w3.org/2000/svg" width="375" height="84" viewBox="158 -12 375 84" enable-background="new 158 -12 375 84"><g fill="#fff"><path d="M244-7.9v75.5h-75.6v-75.5h75.6m4.2-4.1h-84v84h84v-84zm-22.5 43.1l-1.9-.8c-3.4-1.5-5-2.3-5-4.9 0-1.9 1.5-3.4 4-3.4 2.3 0 3.7 1 5.2 3.4l6.3-4.1c-2.6-4.6-6.3-6.4-11.3-6.4-7.2 0-11.9 4.6-11.9 10.5 0 6.5 4 9.7 9.7 12.3l1.9.8c3.5 1.5 5.9 2.6 5.9 5.5 0 2.3-2 4.1-5.5 4.1-4.1 0-6.3-2-7.9-5l-6.5 3.7c2.3 4.6 7.2 8.2 14.7 8.2 7.6 0 13.4-4.1 13.4-11.2-.3-6.7-4.1-9.7-11.1-12.7zm-21.5 11.8v-27.5h-8.2v27.4c0 4.1-1.6 5-4.4 5s-4-1.9-5.2-4.1l-6.7 4.1c1.9 4.1 5.7 7.4 12.1 7.4 7.3-.3 12.4-3.9 12.4-12.3z"/><circle cx="166.3" cy="46.6" r="8.3"/><path d="M260.5 40.6l3.5-2.3c1.1 1.9 2.2 3.1 4.5 3.1s4.1-1.1 4.1-4.6v-20.8h4.6v21.1c0 5.9-3.4 8.6-8.3 8.6-4.5-.2-6.9-2.3-8.4-5.1zm29.5-10.3c-2.3 0-3.7 1.1-4.8 2.2l-2.5-2.5c1.5-1.9 3.7-3.1 7.5-3.1 4.4 0 7.6 2.3 7.6 7.8v10.5h-4.4l.1-2.6c-1.4 1.9-3 3-5.9 3-3.5 0-6.5-1.6-6.5-5.9 0-3.7 3-5.5 7.1-5.5h5c.5-2.7-.7-3.9-3.2-3.9zm-1.1 7.1c-1.9 0-3.1.7-3.1 2.3s1.2 2.3 3.4 2.3c2.5 0 4.4-1.2 4.4-3.1v-1.5h-4.7zm11.8-10.3h4.9l3.5 7.9c.7 1.5 1.2 4 1.2 4s.5-2.3 1.1-4l3.5-7.9h4.5l-9.1 18.4h-.5l-9.1-18.4zm28.9 3.2c-2.3 0-3.7 1.1-4.8 2.2l-2.5-2.5c1.5-1.9 3.7-3.1 7.5-3.1 4.4 0 7.6 2.3 7.6 7.8v10.5h-4.4l.1-2.6c-1.2 1.9-2.9 3-5.7 3-3.5 0-6.5-1.6-6.5-5.9 0-3.7 3-5.5 7.1-5.5h5c.2-2.7-1-3.9-3.4-3.9zm-1.1 7.1c-1.9 0-3.1.7-3.1 2.3s1.2 2.3 3.4 2.3c2.5 0 4.4-1.2 4.4-3.1v-1.5h-4.7zm12.5 2.1l3.7-2c1.4 2.3 3.1 4.1 6.7 4.1 2.9 0 5-1.5 5-4.1s-1.6-3.5-5-5l-1.9-.8c-4.4-1.9-6.8-4.1-6.8-8.6 0-4.4 3.3-7.5 8.2-7.5 4 0 6.5 1.5 8.3 4.6l-3.5 2.2c-1.1-1.9-2.3-2.7-4.8-2.7-2.3 0-3.7 1.5-3.7 3.3 0 2.2 1.2 3.1 4.2 4.6l1.9.8c5 2.2 7.6 4.6 7.6 9.3 0 5.2-4.1 8-9.5 8-5.5 0-8.7-2.9-10.4-6.2zm24-3.4c0-5.5 4.1-9.4 9.7-9.4 3.3 0 5.6 1.2 7.4 3.4l-3.1 2.5c-.8-1.2-2.3-2-4.2-2-3.1 0-5.2 2.3-5.2 5.6s1.9 5.6 5.2 5.6c2.2 0 3.4-1 4.5-1.9l2.6 2.5c-1.8 1.9-4 3.1-7.5 3.1-5.3 0-9.4-3.8-9.4-9.4zm21.1-9h4.4v3.3c1.2-2.7 3.1-3.7 5.3-3.7 1.2 0 2.2.3 2.9.7l-1.5 4c-.7-.3-1.4-.7-2.3-.7-2.6 0-4.4 1.5-4.4 5.6v9h-4.4v-18.2zm15.6-6.9c0-1.6 1.4-2.7 2.7-2.7 1.5 0 2.9 1.1 2.9 2.7s-1.4 2.7-2.9 2.7-2.7-1.1-2.7-2.7zm.7 6.9h4.5v18h-4.5v-18zm9.9 0h4.5l-.1 3.4c1.1-2.2 3.3-3.7 6.4-3.7 4.6 0 8.3 4 8.3 9.3s-3.7 9.4-8.5 9.4c-3 0-5.2-1.5-6.3-3.4v12.3h-4.5v-27.3h.2zm14.6 9c0-3.1-1.9-5.6-5.2-5.6s-5.3 2.2-5.3 5.6 2 5.7 5.3 5.7c3.3-.1 5.2-2.3 5.2-5.7zm9.9 3v-8.3h-2.7v-3.7h2.7v-9.4h4.4v9.4h4.9v3.5h-4.9v8.3c0 2 .7 2.6 1.8 2.6s1.6-.5 2.2-.8l2 2.9c-1 .8-2.3 1.6-4.6 1.6-3.2.3-5.8-1.3-5.8-6.1zm14.9 3.4c0-1.6 1.4-2.9 2.9-2.9s2.9 1.2 2.9 2.9-1.4 2.9-2.9 2.9c-1.4.1-2.9-1.1-2.9-2.9zm9-6.4c0-5.5 4.1-9.4 9.7-9.4 3.3 0 5.6 1.2 7.4 3.4l-3.1 2.5c-.8-1.2-2.3-2-4.2-2-3.1 0-5.2 2.3-5.2 5.6s1.9 5.6 5.2 5.6c2.2 0 3.4-1 4.5-1.9l2.9 2.6c-1.8 1.9-4 3.1-7.5 3.1-5.5-.1-9.7-3.9-9.7-9.5zm20 0c0-5.5 4.4-9.4 9.7-9.4 5.6 0 9.7 4.1 9.7 9.4s-4.2 9.4-9.7 9.4c-5.3 0-9.7-3.9-9.7-9.4zm15.2 0c0-3.3-1.9-5.7-5.3-5.7-3.1 0-5.3 2.3-5.3 5.7s2 5.7 5.3 5.7 5.3-2.4 5.3-5.7zm9-9h4.4l-.1 3.1c1.2-2.3 3-3.4 5.5-3.4 2.6 0 4.4 1.2 5.3 3.4 1.5-2.2 3.5-3.4 6.3-3.4 4.4 0 6.8 2.7 6.8 7.5v10.9h-4.4v-10.6c0-2.5-1-4-3.3-4-2.5 0-4.1 1.5-4.1 4.6v9.8h-4.6v-10.4c0-2.5-.8-4-3.3-4-2.6 0-4.1 1.5-4.1 4.6v9.8h-4.4v-17.9z"/></g></svg>